<?xml version="1.0" encoding="UTF-8"?> <svg xmlns="http://www.w3.org/2000/svg" viewBox="0 0 390.07 251.67"><g fill="#3f3f3f" fill-rule="evenodd"><path d="m196.25 51.356c-1.494 1.621-3.702 0.119-6.183 0.413 0.87601-2.043 4.342-0.097 6.183-0.413z"></path><path d="m195.83 61.66c0.716 0.375 1.066 1.444 0.41299 2.061-1.049-0.042-0.974-1.536-0.41299-2.061z"></path><path d="m227.57 65.37c-0.076996 1.159-0.718 1.756-2.061 1.648 0.21799-0.331 0.42899-0.669 0.41199-1.237-0.067001-0.483-0.75099-0.347-1.237-0.412 0.48-1.349 2.558-1.591 2.886 9.99e-4z"></path><path d="m169.04 65.37c-0.42 0.954-0.83 1.918-2.062 2.06v-1.648c0.478-0.346 1.106-0.544 2.062-0.412z"></path><path d="m222.63 67.019c-0.072006 1.949-1.631-0.147-2.887 0.412-0.16301-1.027 2.574-1.22 2.887-0.412z"></path><path d="m175.64 67.019v2.061c-0.862 0.175-1.092-0.282-1.648-0.412 0.049988-1.05 0.599-1.599 1.648-1.649z"></path><path d="m192.54 81.444c0.479-0.067001 0.73399 0.092003 0.82399 0.413-1.089 4.509 0.89002 10.067 0.41301 15.25-0.256 2.785-1.625 5.209-0.824 7.832-1.792-3.667-9.92e-4 -9.154-0.41299-14.015-0.282-3.337-1.508-6.318 0-9.48z"></path><path d="m245.3 92.986c0.17801 1.826-0.687 2.609-2.06 2.885-0.547-0.689-1.092-1.381-0.825-2.885 0.55-0.589 2.335-0.589 2.885 0z"></path><path d="m148.44 92.986c-0.056 1.317 0.40601 3.154-1.237 2.885 0.081009-1.18 0.050995-2.249-1.237-2.061 0.046005-1.053 1.381-0.818 2.474-0.824z"></path><path d="m314.54 99.992c0.504 4.49-2.712 8.827-3.709 13.19-1.077-5.065 2.705-8.834 3.709-13.19z"></path><path d="m192.54 109.47c0.954 1.519 0.144 4.801 0.41299 7.006-1.809-0.879-0.53099-5.353-0.41299-7.006z"></path><path d="m192.95 125.14c0.935 0.438 0.157 2.592 0.412 3.709-1.303-0.076996-0.957-3.044-0.412-3.709z"></path><path d="m248.59 127.2c0.828 0.434-1.837 0.538-1.648 1.237 0.03801 0.146 0.931 0.75 1.235 0.411-0.409 0.45201-2.112 0.77-4.945 1.237 1.126-1.622 2.557-2.937 5.358-2.885z"></path><path d="m192.54 132.55c2.262 2.054 1.08 8.619 0.82399 11.953-2.195-2.955 0.54401-8.293-0.82399-11.953z"></path><path d="m273.32 172.95c0.439-0.937 2.591-0.158 3.71-0.41299-0.078979 1.303-3.044 0.95599-3.71 0.41299z"></path><path d="m277.86 172.54h4.533c-0.049988 1.923-4.033 1.211-4.533 0z"></path><path d="m192.95 202.21c1.969 3.293 0.248 12.254 0.824 18.135-1.756-5.025 0.148-11.27-0.824-18.135z"></path><path d="m211.08 56.714c-0.097992-2.296 3.126-1.271 4.122-2.473-2.199-1.16-6.363-2.347-9.068-1.648 1.558 4.213 6.16 5.382 9.068 8.243 1.165 0.34 1.068-0.581 2.062-0.413 0.884 1.727 3.441 1.779 4.945 2.886 2.422-1.425 5.149-2.545 8.243-3.297-3.159-4.806-3.928-10.359-3.71-15.663 0.198-4.787-0.149-10.843 1.648-15.25 0.49-1.201 1.959-2.478 2.887-4.122 4.918-8.719 9.87-14.148 20.608-17.724 7.916-2.636 22.42-2.359 29.676 1.649 5.719-1.978 10.304 0.364 14.839 2.474 2.05 0.953 4.668 1.799 5.77 2.885 0.70099 0.689 1.258 2.689 2.062 3.709 0.92902 1.179 1.801 1.848 2.474 2.885 1.692 2.615 2.125 5.152 3.297 7.832 1.204 2.752 3.631 4.646 4.533 7.419 0.72998-0.371 1.205-0.995 2.062-1.237 4.29 1.619 6.333-1.67 9.892-2.06 0.617-0.908-2.546-4.673 0.82501-4.947-0.199 1.574 0.117 2.631 0.823 3.297 2.521-0.777 2.599-3.997 4.535-5.357 1.054-6.729-3.39-14.279-10.304-14.426-3.773-0.081-9.498 3.854-4.946 7.006 2.036-0.169 2.102-1.362 3.708-1.236 5.875 0.46 1.969 9.126-4.945 7.419-1.823-0.45-4.519-3.42-4.946-5.358-1.129-5.123 2.697-7.514 5.771-9.892 15.01-3.994 21.859 13.004 13.602 22.67 0.67401 1.408 0.482 3.551-0.41299 4.534-5.697-1.143-10.018 1.51-14.838 0.824 1.349 6.208 3.478 11.637 6.183 16.487 9.211-6.008 17.73 6.889 8.655 11.129 0.28998 3.283 5.778 1.368 8.243 2.473-0.25 1.881-2.544 1.537-0.823 3.297-1.665 0.258-2.004 1.843-4.535 1.237 2.579 1.291 3.777 2.457 6.597 2.062 2.378-0.334 2.993-2.586 4.945-2.473 1.971 0.114 2.111 1.403 3.71 2.885 4.83 0.571 5.686-2.832 7.831-4.946 1.488-0.39101 0.57501 1.624 0.824 2.473 5.756-2.779 9.15-9.749 6.183-16.898-0.22-2.007 1.644-1.929 2.061-3.297-0.90198-1.021-2.843-1.005-3.709-2.062-0.867-6.656-6.431-6.545-12.366-5.358-0.582-0.787 0.11398-2.938 1.648-2.885-0.35199 1.314 0.35901 1.564 0.82501 2.061 1.01-0.364 1.512-1.235 3.298-0.824-0.42001-2.224-3.854-0.585-3.71-2.473-3.487 1.047-6.754 2.314-7.007 6.595-1.288 0.554-3.792 0.724-4.533-0.412-1.369 1.933 0.24399 4.413 1.648 4.946 3.229-0.395 6.014-3.254 9.479-2.062-0.009979 1.502-2.146 0.876-1.648 2.886 1.363-0.616 6.592-1.799 5.358 3.297-0.819 0.554-1.962 0.786-2.885 1.237 0.61002 2.138 3.192 2.303 3.709 4.534-1.773 4.02-6.595 7.111-11.953 6.182-0.10901-2.171 3.033-1.088 3.71-2.473-0.33099-0.996-1.696 1.294-2.473 0 0.73599-2.72 4.538-4.034 7.831-2.885 0.89401 0.069 0.18799-1.462 0.41199-2.061-5.61-1.908-14.046-1.994-15.25-7.832-1.414-6.85 2.888-12.449 11.128-13.19 3.14-0.282 5.129 1.043 9.068 2.061 1.271 1.614 2.784 2.986 4.122 4.534 0.20798 1.853 0.42099 3.7 2.06 4.122-1.225-2.484-1.132-6.287-3.297-7.831 0.12698-0.56 1.033-0.342 1.648-0.413-0.173-2.299-3.011-1.935-3.298-4.122h3.298c-1.847-2.136-3.254-4.714-3.298-8.656 1.086-1.036 1.389 1.034 2.475 1.237-0.20999-2.983-0.297-8.973 3.297-9.48-0.42099 1.777-1.065 3.331-0.82498 5.77 2.169 0.382 0.607-2.965 1.648-3.709 0.849-2.038 2.004-3.767 2.887-5.771 4.426-2.442 7.991-3.389 11.953-4.946 2.955-1.162 9.011 4.592 9.479 7.419 0.39902 2.404-0.422 8.45-2.06 10.304-0.46298 0.523-5.347 2.531-7.419 2.474-2.028-0.056999-3.366-1.151-5.358-2.061-1.18-4.146 0.86301-7.308 5.771-6.594 1.3 1.526 2.672 3.218 1.236 5.357 3.617 0.321 4.919-1.676 4.945-4.946-1.031-1.399-1.584 1.13-3.297 0.413-0.46103-1.973 1.017-2.007 1.236-3.298-1.288-0.85-2.6 0.205-4.121-0.412 0.24799-0.987 0.59198-1.881 0.41098-3.297-2.646-3.188-7.955-1.443-9.892 0-0.77298 0.576-0.76398 1.659-1.648 2.885-0.38501 0.533-1.278 0.382-1.649 0.824-1.595 1.909-2.303 7.677-1.648 11.954 0.396 2.591 2.506 4.973 2.885 7.831 0.58402 4.384-0.72 8.313-2.885 10.716 0.66598 0.673 1.725-0.368 3.298 0 1.216 3.274 0.96198 8.221-2.062 9.48-2.431 8.973-8.456 14.351-18.96 15.25-1.274 4.481-7.353 5.94-6.183 11.542 3.737 2.171 8.118 3.697 10.305 7.419 2.394 7.608-14.49 4.813-10.305 10.304 1.842 2.415 7.098 5.362 6.595 9.068-0.16199 1.199-2.249 1.59-2.061 3.297-1.723-0.496-2.898-0.442-4.121 0-0.324 2.796 1.969 2.977 2.472 4.946 0.332 3.949-3.68 6.662-0.823 9.481-2.055 1.115-3.523-4.509-1.648-6.184-5.936-3.747-0.168-10.831 2.472-14.426-0.72803-3.394-5.511-2.733-8.243-4.122 0.066986-0.479-0.089996-0.734-0.41202-0.824 0.52002-5.1 7.18-5.631 9.48-9.068 0.32602-0.485 1.346-2.683 1.236-3.709-0.56799-5.375-11.61-2.793-11.54-8.656 0.05899-4.926 8.707-3.56 9.892-8.656-2.092-1.532-3.495 0.382-5.358 0.412-8.014 0.127-13.4-5.835-18.135-9.892-10.445-1.784-19.693 6.984-11.953 13.602 2.073 0.288 2.873-0.699 4.945-0.412 0.353 1.315-0.64801 1.274-0.82501 2.061 2.262 1.798 4.229 0.822 5.359-1.237 2.762 1.69 4.828-1.54 4.533-3.709-0.49698-3.664-6.726-4.569-8.243-0.824 0.005005 1.72 2.985-0.792 3.297 1.236-0.53799 2.739-3.904 0.173-4.533-0.824 1.171-5.923 8.271-4.145 11.13-1.236 1.207 11.438-14.709 10.473-18.961 4.534-2.93 0.23-2.552 3.768-4.947 4.533 0.926 1.017 3.897 0.351 2.474-1.236 1.617 0.44299 3.158 0.964 3.71 2.473-6.453-1.356-13.467 1.695-18.547 0 1.264-2.059 4.92 0.61 6.594-1.237-0.564-2.87-2.839-4.03-6.594-3.71-0.974 1.093 1.614 1.125 1.235 2.886-2.413-0.614-4.218 1.534-3.71 2.473-2.678 0.953-4.436 0.271-7.419 0.824 0.37997-3.739 6.039-0.194 7.007-3.709 1.298-0.46201 0.93399-0.038002 2.474 0 0.24301-1.618-2.263-0.485-1.648-2.474 2.993-0.781 4.793-1.562 7.418-0.412 1.992 0.873 1.197 3.696 4.947 3.297 1.475-0.157 2.146-1.005 3.298-2.473-0.64502-11.541 7.736-16.9 17.722-15.25 0.729-0.373 1.276-0.922 1.648-1.648-0.30002-1.021-1.239 1.36-2.06 0-3.62-6.273-3.169-16.616-6.184-23.495-0.543 6.04-1.1 14.654-4.533 19.372-3.059 4.206-8.442 5.41-11.54 9.893-7.542 4.568-16.109 8.566-23.907 13.602-2.653 1.714-6.382 4.556-7.831 6.595-1.141 1.605-0.59003 4.068-2.885 4.946-0.676-3.561 1.902-3.869 2.473-6.183-2.419 0.329-3.48 2.014-5.358 2.886-0.125 1.682 0.86002 0.22 1.648 0.412-0.49002 1.296-2.801 0.77-2.06 3.297 4.602 1.03 10.797-0.647 16.073 0.824 0.599 4.506-8.624 7.415-2.061 10.304 1.799 0.563 0.87698-1.596 2.474-1.236 3.166 0.039001 4.07 2.681 7.007 0.824-0.59399-2.616-4.012-4.405-4.122-7.832-0.13602-4.229 3.191-7.673 9.068-5.77 0.053986 1.016 0.061981 1.986-0.41299 2.473-2.204 0.693-1.786-1.235-3.297-1.237-1.394-0.019997-1.788 0.96-2.473 1.649-0.84 4.185 6.356 7.965 5.77 11.128-0.45602 2.465-4.208 2.641-8.243 2.886-2.642 3.481 1.481 6.448 0.82501 9.48 0.041992 1.057 1.535 0.662 2.06 1.237 0.431 1.167 0.431 1.717 0 2.885 6.905 1.819 15.74-2.071 16.075-8.243 0.23801-4.367-6.338-9.897-9.068-5.358 0.643 2.413 2.293 1.806 4.946 1.648 4.429 6.787-9.476 7.112-9.066 0.41299 0.20599-3.394 5.474-6.597 9.479-5.358 3.102 0.958 7.266 6.875 5.358 11.541-1.219 2.984-8.27 7.881-14.837 7.419 7.183 2.508 16.754-1.189 19.783-5.358 2.157-2.968 3.46-8.958 2.474-13.602-0.625-2.946-4.543-7.773-8.243-8.656-3.042-0.725-5.258 0.32-6.596-2.885 2.829-0.057007 4.589-1.182 6.596-2.061 1.323-0.363 0.56299 1.358 1.648 1.236 1.157-0.49 2.37-0.927 3.71-1.236 1.29 0.221 1.484 1.537 1.648 2.885 1.3 0.202 1.454-0.742 2.885-0.412-0.38199 3.13 0.64499 4.852 0.824 7.419 1.656-1.458 0.89099-6.278 1.237-7.831 1.048 0.049995 1.599 0.6 1.648 1.648 1.419-0.504 1.054-2.793 2.473-3.297 1.576 0.223 1.281 2.563 0.82498 3.71 0.379 1.123 1.288-0.576 2.472 0-1.279 6.413-3.806 11.582-6.595 16.487 1.957-0.654 2.094-3.128 4.123-3.709 0.345 0.479 0.543 1.105 0.41202 2.061 1.487-0.022995 1.994-1.028 3.297-1.237 0.80701 1.317-1.495 2.456-2.061 3.71 0.423 0.951 2.759-0.011993 2.472 1.648-3.736 1.896-7.122 4.142-11.128 5.77 2.094 1.256 4.133-1.077 6.595-0.824 0.35901 2.42-2.336 1.785-2.885 3.297 0.30798 0.92999 2.312 0.161 3.298 0.41299-0.59399 1.743-1.881 2.791-4.535 2.473-0.39603-1.496 1.854-0.346 1.648-1.648-0.173-0.926-2.188-0.012001-2.472-0.824-0.30801-1.269 1.13-0.792 0.823-2.062-1.435 1.402-3.037 0.279-5.357 0.413 2.796-2.837 7.076-4.19 10.716-6.183-1.119-1.352-1.479-2.018 0-3.297-0.04599-0.779-1.362-0.286-1.236-1.237-2.826 0.747-3.381 3.763-6.182 4.534 2.108-5.706 5.417-11.123 7.418-17.312-1.362-0.287-1.725-1.572-2.06-2.885-0.80399 0.403-1.268 2.038-2.474 0.824-1.044 2.393 0.075012 6.945-2.885 7.42-0.95602-1.656-1.225-3.998-1.238-6.596-1.623-0.704-3.134-1.834-4.533-3.709-3.556 1.803-5.786-1.717-7.832 1.236 3.654 0.605 6.898 1.621 9.068 3.709 1.03-0.285-0.76502-1.099-0.41101-2.061 4.794 3.725 5.684 17.35 1.648 22.67 3.104-0.741 4.269-3.426 7.418-4.122-3.122 4.159-8.716 5.847-13.188 8.656 1.234 0.706 5.64-0.802 7.42 0.412-2.302 1.135-6.494 0.375-8.656 1.649 2.436 0.99799 7.256-0.387 8.243 2.061 1.681-0.517 1.127-3.269 3.71-2.885-0.676 1.661-1.892 2.781-2.887 4.123-2.554 0.355-3.109-1.288-4.945-1.648-1.961 1.335-3.927 2.668-5.77 4.12-2.05-0.70401-4.86-2.824-4.947-4.12 2.28-0.22 2.73 1.391 4.122 2.061 1.513-0.412 2.1-1.747 3.71-2.061-3.256-0.935-7.715-0.857-10.305-0.41299 1.183 1.702 2.826 2.945 4.533 4.123-3.585-0.26201-7.914 0.22099-9.479-2.062 1.724 0.306 2.708 0.351 4.533 0.823 0.5-1.122-1.283-2.96-2.885-3.297-1.209 0.351 0.535 1.038 0 2.062-2.349-0.26401-2.817-2.404-3.298-4.535 0.237 3.495-0.172 8.67 2.885 10.716-2.68 2.507 0.054016 4.916 1.236 7.007-2.46 3.284 1.582 3.885 1.648 7.007 0.64099 1.466-1.398 0.25-1.235 1.238-0.10901 2.719 2.521 2.698 3.297 4.533-0.47 0.90399-1.063 1.684-0.823 3.297 1.698 2.491 0.62399 5.894 3.708 7.42 0.285 1.571-1.676 1.984-0.41098 3.297 1.858 1.577 7.046-0.176 7.831 2.473-1.839 2.008-5.602 2.093-7.831 3.71 0.039978 1.277-0.18802 2.285-0.82501 2.886 6.543 10.798-12.307 11.274-20.196 10.305-1.036-0.12799-0.517-0.198-0.41202-0.825-2.556 1.617-3.998-1.15-7.42 0-3.222-2.38-5.771-5.744-3.297-10.717-1.666-3.362-5.865-3.145-8.656-4.533-0.076996-2.088 2.415-3.322 3.71-1.648 0.255-2.709 0.23599-3.17-0.41101-5.358 0.66602-0.70799 1.725-1.025 3.298-0.825 0.26502-1.641-1.092-1.657-0.82498-3.298 0.582-1.064 1.551-1.746 2.474-2.472 0.28-1.545-0.686-4.884 2.06-4.946-1.141-2.153-1.19-5.464 1.648-5.771 0.085999-1.185-0.104-2.094-0.823-2.475 0.20602-1.992 2.985-1.41 2.474-4.12-5.912-0.722-15.201 0.63699-22.259-0.825 1.674 3.273 4.922 4.971 7.42 7.42-1.222 1.508-3.64 0.37-5.77 0.412-7.643 0.146-18.464 0.86499-24.731 0.411 0.58-3.304 7.319-3.918 9.479-7.006-7.163 0.659-15.63 0.33099-24.318 0.411 3.723 2.11 8.454 3.346 11.129 6.595 8.993 10.923-2.941 26.1-19.372 24.73 1.301 1.86 4.463 1.858 7.007 2.475 2.768 2.547 5.456 4.667 5.358 8.655-0.146 6.033-6.308 10.567-13.189 10.305 0.314 1.503 1.977 0.865 2.885 1.235 4.438 1.807 8.68 4.514 11.13 8.243-0.758 5.151-6.121 5.694-9.894 7.833-0.407 1.613 0.911 2.393 0 3.297-4.771-3.923 2.283-6.69 4.946-8.245 1.241-7.696-5.03-7.884-8.654-10.715-2.502 7.89-0.815 17.699-1.237 26.79-0.39999 8.624 0.102 16.851-2.474 23.495 0.069 1.716 0.143 3.44-0.824 4.121h-2.473c-3.85-17.323-1.352-35.327-2.473-53.995-1.724 0.201-3.055 0.793-4.534 1.237-1.037 3.23-2.46 5.318-1.648 9.479 3.468 0.903 6.222 6.487 0.82399 7.42-0.45698-2.244 2.256-1.317 2.061-3.298-1.717-1.992-5.397-2.022-7.007-4.122-2.12-8.205 5.22-10.039 9.893-12.776-6.793-2.239-15.003-5.704-12.366-14.84 3.488-2.831 7.303-5.336 11.953-7.007-6.901-0.424-16.559-4.318-18.96-9.066-1.096-2.169-1.4-6.717-0.412-9.481 2.169-6.072 9.771-9.999 16.486-11.952-0.145 0.541-0.72501 0.64801-0.824 1.235 0.90001-0.47499 2.667-0.080002 2.886-1.235-5.752-1.08-15.435 0.711-22.257 0 0.005005 3.087 3.65 4.498 3.297 6.594-9.682-0.013-22.18 1.028-32.15 0.41299 2.521-2.974 5.721-5.271 9.48-7.007-0.642 1.831-2.856 2.089-3.709 3.709 2.539-1.306 5.042-2.651 7.006-4.533-0.647-1.735-1.717 0.73799-2.473 0.82399-0.36099 0.041-1.812-0.804-2.061-0.82399-6.615-0.545-17.987 3.67-23.906 0 1.571-0.91 3.087-0.194 4.533-0.412 6.56-0.991 10.275-5.699 14.838-8.656 0.196 3.219-2.172 3.873-2.885 6.183 4.961 0.104 12.029-1.399 18.136-0.41299-3.198 3.123-6.958 5.684-11.129 7.832 6.516 1.002 10.984-0.379 18.548 0-0.222-3.213-3.308-3.562-3.709-6.594 7.608-0.60701 16.377 0.73399 23.494 0-19.852-2.438-36.572-11.118-42.866-28.44 0.33099 0.218 0.66899 0.429 1.236 0.412 0.31-1.908-1.574-0.573-1.649-1.236-0.005997-5.248-1.218-8.96-2.061-12.366h-5.771c1.977 4.319 0.014999 8.464-1.236 12.777-1.795-0.953-2.133-3.363-3.71-4.534-0.005997 3.033 1.387 8.227 0.825 13.19-0.873 1.601-2.229 2.718-2.473 4.946 0.093002 2.106 2.685 1.711 3.709 2.885 2.376-2.433 2.013-7.604 7.419-7.007 1.133 0.37801 1.209 1.814 1.649 2.886 2.319-0.99 5.594-0.361 5.77 2.06-2.391-0.116-3.84 0.81-5.357 2.474-5.168-0.325-12.822 2.226-14.839-2.062 0.009003-2.893 1.386-6.183-1.237-7.419 0.109-1.677 0.776-2.797 1.237-4.122-3.512 1.711-2.685 11.327-9.893 10.717 0.146-0.542 0.727-0.648 0.825-1.237-5.07 1.383 1.632 5.306-0.412 8.656 0.202 1.996 2.089 2.308 2.473 4.122 0.504 1.879-1.13 1.617-0.824 3.298 0.107 1.541 2.046 1.251 2.473 2.472-1.227 3.168-0.297 5.81 2.062 7.42-1.949 4.092 2.758 4.501 1.648 9.068 0.839 0.671 2.157 0.865 2.885 1.648 0.42 1.793-0.853 1.896-1.236 2.885 0.654 0.994 1.818 1.479 2.473 2.474 0.353 1.314-0.649 1.274-0.824 2.062 1.259 3.273 4.393 4.674 8.656 4.945-1.662 3.56-8.09 2.352-9.48 6.183 0.162 3.185-1.12 4.926-1.237 7.83-5.366 6.062-38.172 6.811-32.149-7.83-1.055-3.502-6.06-3.756-8.244-4.946 0.047997-2.013 2.407-1.714 4.122-2.062-1.244-2.369 0.92001-3.716 2.473-4.533-0.131-0.968-0.64999-1.548-0.412-2.886 2.538-0.666 3.336-3.415 2.061-5.77 1.87-1.171 4.229-3.824 2.473-6.184 3.039-2.045 2.241-7.927 4.946-10.305 0.331-1.429-0.614-1.583-0.41299-2.885 1.212-1.948 3.307-3.014 2.474-7.007 1.088-0.97301 2.591-1.529 2.473-3.71-0.651-2.087-2.885 0.18001-4.123 0-1.433-0.20599-0.563-0.849-2.06-1.236-3.523 1.454-4.885 0.463-9.48 0.41299-1.848 0.028 0.565-1.213 0.412-2.062-1.967 1.055-4.037 2.008-7.007 2.062-0.043999-1.025-0.771-1.276 0-2.062-2.042 0.318-2.183-0.010002-4.533 0 0.65-1.686 2.817-1.855 4.533-2.473-3.863-1.564-9-2.353-12.777-0.824-0.33-1.43 0.615-1.585 0.413-2.886-2.24 0.042999-4.256-0.14-5.358-1.237-0.024998-2.223 3.864-0.532 4.946-1.649-0.336-1.724-2.722-1.398-2.473-3.709 3.078 0.494 4.658 2.486 7.832 2.885 1.014-1.58-2.979-1.679-2.473-4.122-4.156-1.477-9.059-2.206-11.953-4.946 0.045998-1.053 1.38-0.818 2.473-0.824-0.98-2.18-4.222-2.099-4.122-5.358 1.696 0.502 3.25 1.146 4.946 1.648 0.926-0.173 0.011997-2.187 0.824-2.473 2.67 1.727 3.588 5.205 7.007 6.183 0.63-3.521-1.937-7.403-4.946-8.656-0.077003-1.726 1.96-1.336 2.884-2.061-0.315-1.607-3.452-0.394-3.297-2.473 1.448-1.025 4.104-0.841 6.595-0.824 0.728-0.69-0.367-1.381 0-2.886 2.084-0.958 3.973 0.66299 5.357 1.65 2.283-1.84 5.48-2.764 9.893-2.474-0.247 1.403-2.405 0.893-3.709 1.237-16.03 7.879-4.772 33.743 11.953 34.21-11.508-2.809-10.505-23.27 3.71-21.021 1.461 0.23 1.836 0.756 3.297 1.649 1.941-3.49 7.072-8.5 2.885-13.19-1.819-0.439-3.186 0.815-4.122 0 0.55-3.065 5.103-1.873 7.419-1.236 3.646 4.188 1.294 10.521-1.237 14.014 1.183 1.85 1.926-0.549 4.123 0 0.70499 0.393 0.82999 1.368 1.648 1.648 2.808 0.335 3.744-1.201 4.946-2.473 0.084999-3.932-4.682-3.012-6.183-5.358-0.288-2.21 1.218-2.629 1.648-4.122 6.243-0.499 9.753 1.515 14.839 0.413-0.405-2.068-1.418-3.528-2.886-4.534 0.018005 1.357 0.69601 2.052 0.413 3.71-2.435-2.069-2.917-5.178-4.534-7.419-1.532-2.124-3.641-4.7-5.77-6.595-4.124-3.671-10.177-5.79-14.839-9.48-1.305-1.033-2.911-3.315-4.946-5.358-3.848-3.863-7.748-6.764-8.656-13.602-0.552-4.149 0.061996-8.319-0.824-13.19-3.271 9.232-3.619 21.387-10.304 27.204 2.913 1.502 4.961-1.152 8.243-0.824 0.964 0.094994 0.241 0.742 1.648 1.236 0.564 0.198 1.547-0.29 2.061 0 1.902 1.076 6.231 6.546 5.771 9.068-0.739 4.048-3.973 0.401-5.358 3.297 0.862 4.359 5.603 4.84 11.128 4.534 2.187-0.923 1.898-2.874 4.123-3.298 2.491-0.475 5.724 2.288 8.243 0-0.493 1.843-2.255 2.417-2.886 4.123 2.349 0.012001 2.779-1.894 4.947-2.062-0.768 3.98-4.745 3.415-8.656 3.71-6.434 0.485-15.133 2.084-20.197 0.412 0.701-1.497 3.681-0.714 4.946-1.648-1.465-1.145-2.947-2.273-3.297-4.534-5.015 0.942-11.595-0.208-12.365-4.122-0.733-3.726 3.045-7.675 7.832-5.358-0.049004 1.188 0.225 2.699-0.413 3.298-2.03 0.106-4.006 0.159-3.71-2.062-3.408 1.039-0.873 7.18 2.062 7.007 1.479-0.033005 0.328-2.695 1.236-3.297 2.204-0.144 1.897 2.225 3.71 2.473 5.29-0.55199 4.373-7.673 1.648-10.304-2.932-0.663-6.698-0.84-11.128 0-3.999 0.758-6.788 4.409-11.129 5.358-5.843 1.278-10.479 1.952-17.311 1.649 1.961 2.917 6.882 2.537 6.595 6.183-0.247 3.12-4.845 2.906-7.42 4.946 9.99e-4 2.61 2.355 2.866 3.297 4.533 0.132 0.956-0.066002 1.583-0.412 2.062 6.818 4.375 1.992 12.051-2.886 16.487 0.546 2.202 2.99 2.506 3.71 4.534-0.553 2.056-0.693 4.527-3.297 4.533 0.559-2.621 1.571-2.255 1.649-5.357-4.354 0.35001-0.863 3.581-2.473 6.182-0.401-4.27-0.807-8.536-4.123-9.892-0.145-2.206 1.146-2.977 1.65-4.534 1.61-0.175 3.396-0.175 4.122-1.236-0.546-2.127-2.732-2.345-2.886-4.534-0.146-2.095 1.701-2.663 2.061-4.946-1.792-2.92-7.105-1.463-7.007-5.358 0.070999-2.818 6.832-4.394 6.594-8.656-0.157-2.846-2.644-2.484-4.121-5.77-10.254-1.7-14.929-8.978-20.196-15.663-0.331-1.43 0.614-1.585 0.412-2.885-1.699-0.325-0.774 1.973-2.473 1.648 0.359-3.052-0.28-4.804-2.062-7.419 1.676-1.217 2.576-0.337 4.534 0 0.509-2.707-2.538-1.859-3.71-2.885-5.12-6.928 2.986-11.53 4.947-16.487 3.351-10.815-9.147-19.675-17.313-15.667-2.365 1.161-4.716 6.633-1.237 8.243 2.176-0.347 2.023-3.084 4.122-3.297 2.869-0.291 4.238 2.232 4.534 5.77-2.975 3.9-9.923 2.038-12.777-0.824-0.246-4.507 0.352-8.024 2.473-9.892 7.286-6.417 22.318 2.624 25.967 7.419-0.303 1.896-1.226 3.171-2.062 4.534-0.294 1.119 1.944-0.295 1.649 0.824 0.247 3.406-2.563 3.757-3.297 6.183 1.402 0.835 2.169-2.491 4.534-2.062 0.633 3.656-2.151 3.895-2.473 6.595 3.003-2.895 6.444-5.561 11.541-5.358 7.112 0.283 13.238 5.528 11.954 14.426-0.76 5.062-10.514 4.888-7.831 10.716 2.674 0.477 2.933-1.462 4.946-1.648 1.384-0.423 0.642 1.282 0.824 2.061 1.26 0.299 1.212-0.711 2.473-0.413 0.753 1.046 1.549 2.295 0.824 3.71-3.946-1.083-7.8-1.211-10.717-2.473-0.346-1.027-0.539-2.208-0.412-3.709-1.087-0.812-4.536 0.696-5.358-1.649-0.867-1.66 1.073-2.321 2.061-3.297-0.395-1.253-2.463-0.834-2.061-2.885 0.477-2.134 2.768-2.454 5.358-2.473 1.147 0.186-0.323-2.247 0.825-2.06 2.446-1.465 3.973 1.134 5.358 2.06 3.269-0.63 1.049-5.714-0.413-6.594-1.777 0.283-2.451 1.67-4.946 1.236-0.132-0.968-0.651-1.547-0.413-2.885-0.749-2.085-4.601-2.504-7.006-1.648-1.883 2.239-4.387 3.856-6.183 6.183-0.368 2.655-1 5.045-3.297 5.771 1.665 1.76 0.963 3.985 0.412 6.594 0.135 1.926 2.137 1.986 2.061 4.122-1.733 0.085003-1.731-1.566-3.297-1.648 0.427 2.32 2.927 2.569 4.122 4.122-0.025999 2.636 1.035 4.186 2.473 5.358 1.208-0.465-0.68-1.184-0.824-1.648 2.094-0.984 2.909 2.853 4.122 4.121 3.449 0.536 5.936 2.033 8.244 3.71 1.075-0.849 1.641-2.207 2.885-2.885 6.841-0.53101 12.998 6.628 17.724 0.824-0.747-1.04-2.132-1.44-2.885-2.473 1.308-1.968 6.335-0.215 9.479-1.236-3.824-1.537-7.512-8.625-3.709-12.777 1.274-1.393 10.126-4.374 9.893 0-7.274-4.325-11.885 7.582-5.771 10.716 3.454-0.531 5.827-2.142 6.595-5.359-1.34-1.133-4.135-0.811-4.534-2.884 8.532-2.186 9.859-11.574 12.777-19.373-2.328-1.381-4.614-2.805-7.007-4.122-2.375 1.767-6.71 1.47-7.831-1.237-0.025002-2.498 2.348-2.598 3.71-3.709-3.118-2.039-5.343-11.224-1.649-16.487 2.497-3.557 11.29-7.928 17.723-5.359 0.285 0.114 4.528 2.967 4.947 3.71 1.182 2.098 0.699 4.721-0.413 7.419-0.89899-18.196-26.89-9.802-21.433 5.358 2.091-1.228 2.866 0.846 4.534 1.237-0.321 1.602-0.708 3.138-1.648 4.122 2.438 3.058 5.48 5.51 10.304 6.183 2.258-4.199 2.952-9.964 7.419-11.954-2.195 3.851-4.236 7.854-5.358 12.778 2.409-3.774 4.28-8.086 7.007-11.542-0.497-1.838-1.991-2.68-3.709-3.297-3.36 1.967-9.485 3.136-11.954-0.413-0.477-3.638 1.341-4.979 4.123-5.358 2.181 1.391 1.491 5.653 6.182 4.533 0.022003-2.641-2.868-4.54-2.885-5.77 3.675 0.859 4.584 4.484 7.832 5.77 2.112 0.144 2.663-2.2 4.122-3.297 6.708-5.042 22.438-9.724 32.562-7.007 4.191-1.454 8.664-1.539 12.366-0.824 6.224 1.202 9.855 6.671 16.075 7.007 1.84 2.007 3.703 3.99 6.594 4.946 1.329 3.206 3.599 5.469 5.771 7.831 1.662 7.543 5.646 12.765 5.357 22.257 0.39699 1.496-1.852 0.347-1.648 1.649 3.552-0.71 11.194-0.894 14.838-2.885-1.104-2.111-1.804-4.328 0.41301-5.771 0.22299-1.459-1.46-1.013-1.237-2.473 3.16-4.152-1.352-10.526 2.061-14.426-0.57799-2.045-1.312-1.761-1.237-3.297 0.067001-1.379 2.054-2.396 2.062-2.885 0.021988-1.558-2.615-1.556-1.649-3.709-2.539 1.17-3.982 3.436-5.771 5.357 2.055 2.134 2.366 7.159-1.648 7.419 0.323 1.247-0.41 2.059-0.412 2.885-0.015991 5.931 5.747 6.95 6.183 12.778-6.938-3.614-11.772-12.721-7.832-21.433-0.92601-0.998-2.711-1.137-3.297-2.474 0.027008-1.896 0.565-3.281 1.236-4.533 2.321-0.187 4.231-0.882 5.358 0.824 2.184-0.933 4.4-2.769 6.595-2.473-1.687-2.298-3.76-4.209-3.297-8.656 3.142-6.676 13.572-5.138 15.663 0.825-0.048996 1.187 0.22499 2.697-0.412 3.297 4.585-1.041 9.561 0.059 11.952 2.473 2.974-3.129 9.688-2.296 8.656 4.122-0.78799 0.586-1.183 1.565-2.473 1.648 0.574 1.758 2.132 3.245 2.473 4.947 1.536 7.652-2.592 14.185-7.007 16.899-0.403 1.915 0.534 2.488 0.825 3.71-1.788 0.275-1.11-1.914-1.238-3.298-2.554-0.082001-2.46 2.486-2.472 4.947 1.2 3.107 4.03-1.093 4.945 0.824 1.734-0.288-0.394-1.876 1.236-2.061 1.92-0.362-0.276 1.358 0.825 1.237 1.611 0.651 0.854-1.07 1.648-1.237 2.164-0.241 2.766 1.082 2.885 2.885-1.543 0.032001-1.246-1.777-3.297-1.237-2.538 1.947-4.458 2.139-8.656 2.062-0.229-0.594-0.643-1.006-1.236-1.237-0.291-2.215 0.326-3.521 0.824-4.946-2.402-0.164-7.446 0.786-10.305-1.648-0.32701 2.618 0.446 5.352 0.41299 8.656 1.518 2.116 5.021 1.192 7.832 1.648 4.136 0.672 11.407 3.272 11.128 6.595-0.293 3.438-8.339 4.918-10.72 1.235zm17.311-23.494c1.342-1.554 3.083-3.61 1.649-5.771-0.64 1.834-1.163 3.784-1.649 5.771zm-98.097 93.564c0.16701 1.393 1.598-1.096 1.236 0.824 1.294 0.194 1.089-1.109 2.062-1.236 0.804 1.648 2.923 0.011002 4.946 0.824 0.057999-1.323 2.2-1.801 1.237-2.885-1.351 0.023003-1.576 1.172-3.298 0.824-0.299-0.938-0.368-2.105-0.825-2.885-3.402-0.104-4.244 2.35-5.358 4.534zm62.651-124.89c0.703 1.887-0.34599 2.986-1.649 4.123 3.042-0.158 3.429 2.341 6.595 2.06 0.899-1.299 1.803-2.593 1.648-4.946-1.09-1.899-4.354-2.701-6.594-1.237zm1.648 7.831c0.237 0.725-0.498 2.422 0.412 2.473 2.624-1.576 7.372-2.495 6.183-6.594-2.107 1.464-2.944 4.199-5.77 4.946 0.175-0.786 1.177-0.746 0.824-2.061-2.141-0.809-3.127-0.583-5.358-0.824-0.56999-0.942-0.451-2.572-2.061-2.473-0.451 3.891 4.101 5.276 5.77 4.533zm-72.954 11.541c0.929-0.97 5.039-2.774 3.709-3.297-1.424 1.058-4.587 2.545-7.007 1.236 2.532-1.315 5.591-2.103 6.595-4.946-1.207 0.042-3.114 1.19-3.71-0.824 1.592-1.432 3.555-2.49 5.358-3.71h-2.061c-3.628 2.417-7.66 4.431-10.304 7.831 0.32 1.85-1.355 3.843-2.061 3.297v-2.885c-2.588 1.396-4.135 3.834-6.183 5.771 3.72 1.088 7.033 2.584 10.304 4.122 1.735-2.251 4.769-3.2 5.36-6.595zm0.411-2.473c3.011-1.25 5.088-3.431 8.244-4.534-0.36099 1.149-0.987 2.036-1.237 3.297 1.26 0.3 1.212-0.711 2.473-0.412 1.076-4.283 5.337-5.38 9.068-7.007-3.993-0.284-6.35 1.07-9.48 1.648 1.169-2.54 5.489-1.93 7.419-3.71 3.538-0.098 6.414 2.647 9.48 1.649-7.687-3.873-17.005-1.261-23.494 3.298 1.278 0.542 2.287-1.222 2.886 0-1.094 2.347-5.052 4.01-5.359 5.771zm159.1-0.824c-12.033 2.195-16.62-9.612-30.09-5.771 1.104 2.744 6.854 0.842 8.656 2.886-0.074005 1.162-1.959 0.514-1.648 2.061 1.868 1.017 4.349 1.421 4.945 3.709-4.12-0.485-7.259 0.595-9.479-1.648-1.376-0.001001-1.407 1.341-2.887 1.237-6.422-4.2-14.062 0.138-16.074 6.183 2.587-0.849 4.544-2.326 7.831-2.473 0.020996 0.755-2.111 1.395-0.823 2.06 1.461-0.202 3.007-2.467 4.533-1.236-3.477 4.217-7.923 7.464-12.778 10.304-2.471 7.15-1.959 15.833 1.237 21.845 3.655-2.672 5.054-6.906 3.71-11.541-0.60399-2.08-3.832-4.018-2.474-7.419 0.84801-0.115 0.82201-1.1 1.236-1.648 6.881-4.131 15.161-2.369 23.495-4.122 2.071-0.436 4.03-1.545 6.182-2.062 7.296-1.75 14.09-3.163 20.196-5.77 3.315-1.415 5.917-3.557 9.068-4.534-5.671 9.031-17.416 11.987-27.203 16.9 8.176 0.618 13.029-4.28 18.96-4.534-1.517 1.645-4.014 2.308-5.358 4.122 3.688 0.983 7.514 1.828 7.83 6.183 0.849 0.526 2.092 0.657 2.062 2.061 0.42999 3.04-0.686 4.534-1.648 6.183-5.01-0.099998-7.913 2.33-7.42 6.595-1.077-1.695-3.554-3.921-3.297-6.183 0.25302-2.223 2.287-2.196 3.297-4.122-1.608-0.040001-2.999-0.298-3.297-1.649 2.238-0.921 5.256-1.065 7.419-2.061-0.358 2.25-4.094 1.127-4.945 2.886 1.184-0.084999 2.093 0.104 2.472 0.824-1.553 1.161-3.722 3.083-2.885 5.358 1.304 0.899 2.169-1.487 2.885-2.474 2.665-1.321 4.081-3.888 4.535-7.419-0.548-1.01-1.244 0.743-1.648-0.412-0.60101-3.385-3.434-4.537-6.595-5.358-5.204 3.452-12.54 4.772-18.549 7.418 5.637 0.554 8.706-1.46 13.19-2.06-2.097 2.627-5.826 4.159-9.48 5.357-3.116 1.023-6.681 0.958-9.067 2.886 4.871 0.199 8.044-1.299 12.364-1.649-3.166 2.172-7.007 5.157-11.54 6.183-2.006 0.454-4.426-0.348-6.183 1.236 4.238 0.663 8.014-1.322 11.128-0.412-4.529 4.791-12.428 6.584-21.021 6.183 1.827 2.434 6.662 1.856 9.894 2.885-1.911 1.391-7.068 1.718-9.894 0.824 1.253-0.258 3.551 0.528 4.123-0.412-2.724-0.71-5.084-1.787-7.831-2.473-0.398 2.074-2.011 2.936-3.299 4.122 3.497-0.89 7.519 0.797 10.305 2.885-0.689 0.547-1.381 1.093-2.885 0.824 0.037003-0.64899 1.052-0.322 0.825-1.236-0.993 0.16801-0.897-0.753-2.062-0.41299-0.35701 5.195 2.615 10.554 4.121 15.251 0.91199-4.446-0.11601-10.833 2.886-13.19-0.293 5.257-2.273 12.232-1.235 17.312-0.897 1.197-0.59401 3.949 1.235 3.71-1.287-7.797 0.28201-16.168 2.885-21.434 1.166 0.649-0.931 2.208 0.41299 2.886 0.548-1.448 1.774-3.313 3.297-4.534 2.87-2.299 8.468-5.01 11.541-2.473-10.267 0.047997-18.162 10.003-16.486 20.609 0.879-6.264 2.749-11.54 8.243-13.189-1.944 1.633-4.925 4.412-4.533 7.006 0.80501-1.301 2.17 0.264 2.472 0.825 1.964-2.873 8.463-6.776 12.365-3.709-8.29 0.639-10.422 7.438-14.427 12.365 0.34801 1.165 0.48 2.543 0.825 3.709 1.922-0.139 2.433-1.689 4.533-1.648 1.986-5.159 7.39-6.899 11.953-9.48 0.64102-1.465-1.398-0.248-1.235-1.236 0.73498-1.188 1.066-2.78 2.884-2.885 0.031982 0.718-0.089996 1.282-0.41 1.648 2.544-0.397 4.898-3.092 6.594-0.824 1.753-0.85799 3.497-1.724 4.946-2.885-3.213 1.643-7.851-0.231-10.305 1.648 0.21002-1.163 0.99802-1.75 1.236-2.885 2.739-1.639 7.649-2.258 10.305-2.886 4.908-1.159 11.697-1.884 12.365-4.946-3.792 2.391-9.714 2.652-15.25 3.297-0.86398-0.923-2.06-1.513-3.298-2.061-1.553 0.317-1.97-0.502-3.297-0.412-2.153-1.824-5.967-2.721-8.243-5.358-1.836-2.128-5.303-7.959-2.474-10.305 0.24799 2.775 0.74399 5.301 2.474 6.595-0.26202-2.417-0.42801-4.103 0.41098-6.182 1.595-0.457 1.468 1.457 2.474 0.412 1.083-1.389 0.159-4.786 1.648-5.77 2.265 0.758 2.197 3.848 2.062 7.007 0.72098 0.113 2.056-1.161 2.472 0 0.776 2.439-1.658 4.452-1.648 7.418 2.702 4.842 8.951 7.916 16.488 6.595-0.95798-1.468-3.564-0.998-1.648-3.297-2.454-0.73399-2.971 0.236-5.359 0.413 1.788-3.296 7.006-3.162 9.893-5.358 6.72 3.971 16.236-0.214 16.075-6.595-2.113 2.284-3.983 4.81-7.832 5.358-0.48099-1.078 1.271-1.773-0.41299-1.649-1.253 0.395-0.83301 2.463-2.885 2.062-0.11697-3.552 0.70801-6.163 2.885-7.419 0.311-1.409-1.674-0.524-1.236-2.061 4.366-1.748 9.562-5.132 10.305-10.717 0.25-1.873 0.40601-5.353-1.236-7.006-0.048004 2.012 0.22198 4.343-0.41202 5.77-0.60998-0.215-1.038-0.61-1.648-0.824-1.337 1.548-2.113 3.657-2.473 6.183-2.814-0.891-3.923-4.767-2.886-8.244-6.692-0.178-12.095-3.841-12.366-9.067 2.819 3.775 6.704 6.486 11.542 8.243 3.586-3.736 2.644-12.545-0.41199-16.074-1.298-0.2-0.935 1.264-2.474 0.824-1.879-5.127-6.539-7.474-11.953-9.068 0.703 2.458 4.328 1.992 5.771 3.71 0.29599 1.119-1.943-0.295-1.648 0.824 1.227 1.889 4.544 2.625 6.183 2.885-10.202 4.203-13.713-5.452-19.784-9.068-2.155-0.406-4.676-0.14-7.007-0.412-2.09-0.244-4.857-2.065-6.184 0 11.366 1 20.837 6.092 23.082 14.839-4.667-6.325-11.94-12.239-20.195-13.603 1.264 1.621 4.445 1.324 4.945 3.71-1.602-0.323-2.549-1.298-3.71-2.061-3.168 0.487-6.645-2.876-9.068-0.413 7.062-0.74 8.547 4.094 13.191 5.77 0.22501-0.599-0.48099-2.13 0.41-2.06 1.669 0.53 2.271 2.125 4.123 2.473 1.266-1.037-2.274-2.155-0.82501-3.297 1.37 1.647 3.722 2.317 4.944 4.119zm-40.393 75.427c-0.254 1.766 1.342 1.681 1.235 3.297h-11.54c-0.39099-1.596 1.606-1.697 0.41301-2.885-1.26-0.298-1.503 0.421-2.475 0.412-0.45599 1.595 1.458 1.467 0.41299 2.473-6.649-0.435-8.81-0.098999-16.075 0 1.162-2.025-0.48799-3.222-0.411-5.357 0.463-0.917 2.604-1.396 1.236-2.886-2.068-0.83099-0.599 1.874-1.649 2.061-0.83301-2.739-2.109-5.036-3.297-7.419 0.16301-1.785 1.748-3.39-0.825-3.71-1.429-0.193-0.23599 2.237-1.236 2.474-2.675-2.546-6.97-3.472-10.716-4.946 0.727-0.87 0.929-1.218 0.41299-2.473-2.65-0.589-3.185 0.938-3.71 2.473-8.207 1.135-13.611 5.074-16.487 11.541-1.478 0.242-0.011002-2.462-1.648-2.061-2.514 1.476 0.847 2.575 1.648 3.297-0.925 2.409-0.21501 5.293-1.648 7.832-1.062-0.53-2.978-0.19-3.709 0 1.627 0.887 4.983 0.45 6.182-0.412-0.217-4.614 0.896-7.898 1.649-11.542 3.965-3.609 7.797-6.993 14.014-7.418 12.099-0.829 19.035 8.391 19.785 20.196 18.452 0.796 38.001-1.167 56.88-0.412 1.411 0.056 3.363 0.126 4.533 1.236-2.859 0.851-4.006 3.414-4.945 6.183 0.41699 2.263 5.068 4.452 6.595 2.885-3.027-0.578-5.054-1.173-5.358-3.297-0.504-3.503 4.183-4.462 5.358-7.007-4.822-1.785-11.437 0.14-16.486-0.824-0.058014-1.318 0.405-3.155-1.238-2.886-1.663-0.036003-0.107 2.509-0.823 2.473-4.428-0.267-8.442 0.657-11.13 0 4.111-4.53-3.288-8.753-4.948-3.298zm15.25-83.671c1.605-0.456 3.918-0.203 4.946-1.236-1.57 0.489-4.254-0.133-4.946 1.236zm-46.163 15.663c-0.395-5.32-8.626-5.766-9.892-0.824 0.892 3.809 2.522 6.786 1.235 10.717 8.666 7.979 22.583-7e-3 20.609-10.304-5.414 0.322-7.319-5.634-3.71-8.656-4.141-3.592-9.931-7.604-18.135-5.771 0.03801 4.247 0.83 6.37 0.82301 9.893 0.879-0.915 5.48-1.659 9.068-1.237 4.753 2.179 4.781 11.638-0.823 12.365-2.51 0.326-7.268-2.324-3.3-5.358 2.428 1.708 3.894-0.22 6.597-0.412 0.009995-2.492-1.947-5.187-3.71-4.534 0.95401 0.669 2.797 3.522 1.238 4.121zm8.243-10.716c0.21001-2.335 1.768 2.365 2.886 0.412-0.938-0.3-1.232-1.24-1.648-2.061h1.648c0.057007-5.566-7.887-0.096-2.886 1.649zm-107.16-2.062c1.329-0.319 2.436-0.862 3.297-1.648-1.354 0.293-3.102 0.195-3.297 1.648zm173.11-0.824c0.11002 4.287 3.161 5.631 7.007 6.183-1.354-1.4-1.89-5.794-4.122-4.946 0.57999 0.681 2.549 2.091 1.648 2.885-2.733-0.431-2.899-5.61-5.77-4.533 0.52798 0.021 0.57098 0.528 1.237 0.411zm-148.8 2.061c-0.554 0.819-0.786 1.961-1.237 2.885-4.516 2.727-8.538 2.078-11.541 5.771-1.709 2.101-2.472 5.229-5.358 5.771 5.575 1.916 11.82 4.935 18.96 6.183 6.395 1.117 13.525 0.244 18.136 4.122 1.054 1.103-0.24899 2.173 0 3.71-3.902 2.119-6.467 7.319-4.122 10.716 3.37 4.881 12.88 7.674 18.548 9.893 1.06-2.957 1.939-7.134 1.237-10.304-0.80701-3.639-3.671-4.423-6.183-6.183-0.001007-1.101 1.302-0.896 1.236-2.062-1.822-0.238-3.951-0.171-5.358-0.824 0.852-2.047 4.231-1.308 6.182-1.236 0.97699-1.489-2.157-1.795-1.648-4.123 4.543-0.696 6.211 1.483 8.244 3.297-0.052994-2.008-1.254-2.867-1.648-4.533 0.252 0.121 1.586 1.024 1.648 0-2.416-2.256-4.911-4.432-9.48-4.534-1.455 0.833-4.835 2.141-5.771 0 0.548-0.415 1.534-0.39 1.649-1.237-2.266-1.306-6.435-0.708-7.831-2.884 1.966-0.291 6.438 0.354 8.655-0.825-0.115-1.947-3.357-0.765-2.885-3.297 3.648 0.474 7.938 0.305 11.128 1.236-3.375-7.14-13.854-4.271-21.845-3.297-0.972-0.127-0.767-1.431-2.061-1.237-1.124 0.5-5.282 1.038-5.77-0.412 1.887-0.723 3.605-1.614 5.77-2.061-0.12999 0.558-0.58699 0.787-0.41299 1.648 1.75 0.102 2.22-1.078 4.122-0.824 1.02 0.484-1 1.713 0.82501 1.648 3.347-0.774 6.764-1.479 9.892-2.473-2.401-0.787-5.853-0.715-7.831-0.825 1.612-0.448 3.023-1.098 5.358-0.824-1.406-4.113-7.908-1.515-10.717-1.648-1.354 1.476 1.84 0.902 1.649 2.473-1.268 0.866-3.342-0.313-4.122-1.236-0.16499-1.675 1.754-1.269 2.061-2.473-2.207-0.059-5.915 0.3-7.419 0.412 3.09-4.489 8.833 0.469 13.603-1.236-5.018-1.955-11.614-1.946-15.663 0.823zm57.292 1.649c1.171 1.217 2.447-1.872 2.473 0.824 1.775-0.973 4.144-1.353 3.711-4.534-2.558 0.741-5.418 1.178-6.184 3.71zm-89.029-0.413c1.68-0.801 5.674-1.458 5.358-2.886-1.245 1.505-4.218 1.28-5.358 2.886zm2.473 2.473c-0.29501-0.668 1.944-0.668 1.648 0 9.99e-4 0.736-1.11 2.398 0 2.886 1.614-1.545 2.384-3.936 4.534-4.946 0.060997 0.548-1.676 1.244-0.413 1.648 2.95-0.76 4.049-3.37 6.183-4.947-2.527 0.083-3.381 1.84-5.358 2.474 0.122-0.841 1.115-0.809 1.237-1.649-2.614 1.237-7.47 2.418-7.831 4.534zm56.056 0.413c-2.206-0.954-3.977-2.343-6.183-3.297 1.12 1.771 4.206 3.753 6.183 3.297zm79.96 0c4.425-1.314 6.085 0.914 9.481 1.649 0.20799-1.295-0.972-1.685 0.41199-2.062 2.342 1.093 4.682 2.189 7.831 2.473 0.92902-1.91-3.333-1.773-2.062-5.357-6.62-0.302-12.881-0.243-15.662 3.297zm-7.83 5.77c1.947-3.136 4.773-5.394 6.595-8.656-3.24 1.573-5.906 5.907-6.595 8.656zm148.38-4.121c1.299 0.199 0.93301-1.266 2.473-0.824 0.040009 1.333 1.868 0.879 1.237 2.885 1.024 0.063 1.274-0.648 2.06-0.825-1.048-2.797-2.623-5.07-5.77-5.77 0.19302 1.918 0.556 2.75 0 4.534zm-301.3-1.237c0.129-0.557 0.586-0.787 0.412-1.649-1.086-0.125-1.063 0.86-1.237 1.649 0.898 0.229 2.902 1.459 3.298 0.824-0.862-0.237-1.176-1.021-2.473-0.824zm2.885-0.412c-0.135-0.859-0.708-3.369-1.648-2.061 1.252 0.508-0.447 1.417 0 2.473 0.718 0.031 1.282-0.091999 1.648-0.412zm97.686 2.473c0.62601-1.297 1.836-2.011 2.061-3.71-2.994-3.963-6.885 2.871-2.061 3.71zm-81.611-2.061c-0.032997-1.16 2.826-1.532 1.649-2.473-1.062 1.274-3.108 1.564-3.71 3.297 0.115 0.974 1.101-0.472 1.648-0.412-0.13 0.557-0.587 0.787-0.412 1.648 1.644 2.636 6.839 1.36 5.771-1.648-0.166 0.697-2.418 1.376-2.885 0.412 0.311-0.949 2.547-2.093 1.648-2.885-1.092 0.83-2.311 1.536-3.709 2.061zm92.327 2.472c1.796-0.559 1.491 0.982 2.473 1.237 1.5-1.935 4.56-2.311 4.122-6.183-2.68 1.167-5.884 1.81-6.595 4.946zm130.25 0.826c0.002014-1.651-0.216-3.082-2.06-2.885-0.797 1.531 0.177 2.889 2.06 2.885zm-4.12-1.65c-4.765-0.963-3.404-0.084002-4.946-4.122-1.093 3.559 3.025 4.364 2.885 6.595 1.625 0.394 3.953 0.586 4.533-0.413-0.479-0.069-0.44598-0.651-0.41098-1.237-0.96399 0.803-1.481-0.706-2.061-0.823zm-96.861 3.299c-0.87601-2.148-1.297-4.75-2.885-6.183-2.228 2.634-1.892 7.856 2.885 6.183zm-197.43 2.884c1.03-1.341 2.797-3.083 2.06-4.946h-2.06c-0.686-0.962 0.22-3.518-1.649-3.297 1.681 2.493 0.625 5.171 1.649 8.243zm72.542-4.122c0.029999-1.404-1.212-1.535-2.061-2.061 0.182 1.193 0.869 1.88 2.061 2.061zm-88.618-0.824c1.718 0.171 2.161 2.781 0.824 3.71 1.345 0.107 1.984-0.49 2.062-1.648 7e-3 -1.533-2.19-3.797-2.886-2.062zm183.01 5.771c3.861 0.614 8.094-1.262 8.656-6.183-3.239 0.105-6.764 3.37-8.656 6.183zm-187.54-4.534c-1.394-0.118-1.74-1.284-2.885-1.649-0.131 1.564 2.195 3.445 2.885 1.649zm2.884 0c0.62 0.476 1.736 1.447 2.061 0-0.82-0.275-1.76-1.422-2.061 0zm68.009 2.885c0.589-0.55 0.589-2.335 0-2.885h-1.648c-0.546 0.75 0.23399 2.817 1.648 2.885zm106.75-1.236c0.55499 1.093 1.38 1.917 2.473 2.473 0.046997-1.465 1.524-1.499 1.237-3.297-0.64999-0.038-0.323-1.052-1.237-0.825-1.027 0.345-0.86699 1.88-2.473 1.649zm-68.42 7.831c-6.127-2.941-11.843-6.293-18.136-9.068-2.795 4.263-5.821 13.324-1.648 18.548-3.247-0.738-3.083-4.886-4.123-7.831-1.067 3.603-1.381 7.961-1.236 12.777 1.061 1.543 3.89 6.427 4.946 4.946 1.394-1.167-1.934-2.251-2.885-4.534-0.67-1.605-1.321-3.827 0-5.358 1.798-0.133 1.919 3.556 3.297 2.474-0.831-1.921 1.236 0.295 2.06 0.412 0.278-2.887-1.917-3.302-2.473-5.358-0.123-1.083 1.599-0.324 1.237-1.648-2.001-1.859-3.097-7.474-0.413-9.48 0.224 2.431-0.704 5.186 1.237 7.419 4.661 0.901 8.003-1.545 11.129-0.824-1.634-3.587-7.771-2.672-8.244-7.419 5.334 1.124 10.172 4.938 15.252 4.944zm-109.64-7.42c0.299 0.337 2.853 1.105 2.473-0.412-0.237-0.859-2.667-0.515-2.473 0.412zm102.63 1.649c-0.771-0.603-0.486-2.261-2.062-2.06 0.056 1.071 1.673 2.687 2.062 2.06zm181.36 0.825c0.74802-1.039 2.4-1.172 2.885-2.473-1.028 0.499-4.01 1.186-2.885 2.473zm76.253 6.182c-1.118 1.124-1.026-1.066-2.474-0.824 1.236 4.261 4.4 6.591 6.595 9.893-2.165-5.391-2.247-12.866-4.946-17.724-0.026001 3.186-0.24002 6.56 0.82498 8.655zm12.776-5.358c1.304-0.484 1.779-1.794 2.887-2.473 0.199 0.487 0.439 0.935 0.823 1.237 1.828-3.31-5.286-2.426-3.71 1.236zm-251.42 4.534c-6.202-2.317-11.623-5.415-18.548-7.007 3.894 4.436 11.713 9.364 18.548 7.007zm36.683-4.534c-1.244 1.229-4.886 0.060001-5.77 1.648 1.311 0.847 5.284-0.045 3.709 2.474 3.076-0.863 6.531 1.145 7.831-1.237-1.521-0.266-3.149-0.423-4.122-1.237 2.389 0.191 4.379-0.018 4.534-2.061-2.199-0.823-4.104-1.94-7.418-1.648-0.30899 1.408 1.674 0.524 1.236 2.061zm30.501 4.122c3.143 1.613 8.264-1.14 7.832-5.771-3.293 1.243-6.395 2.674-7.832 5.771zm42.454-2.474c-0.20201-0.248 2.725-2.271 3.298-0.824-2.885 1.242-6.651 3.786-6.184 7.007 1.632-2.215 4.194-3.499 7.007-4.534 0.68799-0.818-0.037003-0.524 0-1.648 1.52-0.541 2.752-1.369 3.71-2.473-1.427 0.186-3.086 1.018-3.297-0.825-2.001 1.032-5.39 2.246-4.534 3.297zm48.636-0.411c1.403 0.028999 1.536-1.212 2.062-2.061-1.192 0.181-1.88 0.869-2.062 2.061zm21.847 8.655c1.097-1.658 1.856-5.827 0.823-8.244-1.293 2.994-3.883 9.031-0.823 11.541 0.83801-2.046 1.092-4.678 3.71-4.946-0.065002-3.37-0.272-6.599-1.238-9.068-0.11801 2.928 0.492 10.809-2.472 10.717zm-286.05 5.77c2.081-0.402 4.298-1.894 3.297-4.122 1.588-0.666 2.234-1.043 3.297-2.473-0.123 0.164-0.904-0.652-0.824-0.825 0.355-0.774 3.88-2.141 2.885-3.709-1.066 0.869-2.852 3.176-4.534 2.061 0.337-3.099 3.408-3.462 3.709-6.595-0.723-0.113-2.057 1.16-2.473 0-0.022999-0.252-0.062-0.488-0.413-0.412 0.279 6.976-7.151 9.825-4.944 16.075zm189.19-13.19c0.185-1.189 1.772-0.974 2.061-2.06-1.573 0.884-2.422-0.313-3.71-0.825-1.186 1.393 0.51601 2.537 1.649 2.885zm72.13 0.413c0.617-0.894 2.063-0.96 2.062-2.473-1.758-0.498-2.616 2.025-2.062 2.473zm-112.52-0.824c1.125-0.037001 0.83 0.687 1.649 0 0.32399-1.588-1.974-1.588-1.649 0zm109.64 2.061c0.56299-1.085 1.734-1.563 2.062-2.885-1.305 0.088999-2.912 2.006-2.062 2.885zm-14.839 1.236c-0.168 0.993 0.75299 0.896 0.41199 2.061-1.003 1.057-2.607 1.514-3.71 2.473 6.896-1.733 15.861-1.788 17.312-7.832-5.197 0.574-9.333 2.208-14.014 3.298zm-71.305 4.946c1.329-0.661 2.201-1.227 2.885 0.413 2.047-1.978 8.191-4.123 5.358-8.244-2.008 3.351-7.201 3.516-8.243 7.831zm135.19-2.473c1.779 0.55 2.887 0.116 2.887-2.06-0.52798-0.022999-0.57199-0.528-1.238-0.413 0.32599 1.699-1.972 0.775-1.649 2.473zm-201.55 0.412c1.406 0.654 3.271 0.851 4.946 1.236-0.052994-1.564 1.866-1.157 2.061-2.473-3.649 0.489-4.514-1.806-8.244-1.236 0.103 1.393 3.475 1.126 1.237 2.473zm124.89-1.648c-1.124 1.117 1.064 1.025 0.823 2.473-1.038 1.333-1.409 2.191-0.411 3.709-0.451 1.473-2.02 1.828-3.297 2.473-0.019012-0.568 0.19199-0.906 0.411-1.237-1.049 0.049999-1.599 0.6-1.649 1.648 1.671 1.465 3.016-1.125 3.71-0.412-1.426 2.697-3.065 5.176-4.945 7.419 1.494-0.395 0.41901 1.779 1.235 2.061 1.196-0.316 2.372-0.652 2.887-1.649-0.136-1.107-0.58899-1.48-1.648-2.474 1.826-0.508 3.723-0.947 4.533-2.473-0.615-0.621-2.35-0.124-2.062-1.649 1.585-0.889 4.143-0.804 4.533-2.885-0.347-0.888-2.626 0.155-2.885-0.824 0.16-1.903 2.896-1.228 3.298-2.885-0.649-0.726-2.207-0.541-2.885-1.237 4.189 0.242 8.085 0.838 9.892-2.061-3.56-1.607-6.663 0.675-11.54 0.003002zm-135.19 1.648c5.5 0.444 7.995 4.055 14.013 2.885-0.27399-1.482-2.536-1.631-3.709-2.06-3.317-1.214-6.512-1.669-10.304-2.473v1.648zm-70.895 1.237c1.126-0.888-0.079002-2.916-1.648-2.473 0.703 0.671 0.434 2.313 1.648 2.473zm63.475 34.622c1.414 3.503 8.699 6.197 11.954 2.886-2.54-0.838-7.36 1.904-9.068-1.237 2.022-1.579 6.371 1.213 6.183 0.413-0.991-0.404-3.114-1.806-2.473-2.473 2.291 1.557 5.678 2.015 7.832 3.709-0.91399 1.697-3.445 1.776-6.183 1.649 0.861 1.887 2.235 3.26 4.122 4.121 6.58-3.044 11.06 0.713 16.487 1.65 1.14 1.425 1.282 2.768 3.297 2.473 0.912 0.874 0.616 2.956 2.061 3.297 0.181-4.714-2.142-6.927-3.709-9.893-1.579-1.168-4.546-0.95-5.358-2.885 6.215-0.049004 9.16 4.007 10.717 8.656 0.30301 0.904-0.608 2.689 1.236 2.885 1.018-11.183-4.207-16.126-13.189-17.312 5.571-2.324 10.736 1.919 13.602 4.947 0.56601-0.94-1.062-1.55 0-1.648 2.203 2.33 2.283 6.785 3.297 10.304 0.99701-1.749-0.43799-4.087 0.41301-5.358 0.62199 0.752 0.437 2.31 1.236 2.884 0.45401-2.39-0.65599-5.372-0.412-6.182 4.059 4.063-0.039993 11.651-0.82399 16.074 1.783-0.965 2.184-3.312 2.473-5.77 2.833-1.701 2.317-6.751 4.533-9.068 1.055 2.256-2.011 5.88-1.236 7.832 2.029-3.741 5.375-6.167 7.419-9.892-2.923-0.237-7.158 0.838-7.832-1.649 2.115-0.633 3.824-1.672 5.359-2.885-4.921 0.11-11.724 1.46-14.839-1.237 2.012-1.561 6.163-0.981 7.007-3.709-2.2-0.549-4.7-0.797-4.122-4.123-2.776-1.571-4.528 1.086-6.595 2.474 1.55-0.351 5.514 0.44 7.419 2.061-5.292-0.189-8.91-0.072998-12.777-2.061 2.333-1.239 5.683-1.461 7.419-3.298-7.277-0.417-13.94-1.447-18.547-4.533 4.876 0.515 8.981 0.409 12.365-0.825-7.739-1.184-15.714-2.447-20.609-7.419 4.482 0.507 9.865 1.778 12.777 0.824-7.15-0.817-12.263-3.673-18.135-5.77 0.284 1.638 2.468 1.378 2.06 3.709-1.15-1.048-4.757 0.361-5.358-1.237h2.473c-0.52-1.678-1.025-3.371-2.061-4.534-4.082 3.831-2.527 12.82 3.71 13.19 1.051-0.525-0.382-2.019 0.412-2.061 1.214 1.825 5.256 4.699 2.886 7.419-1.155-0.219-0.763-1.985-1.237-2.885-3.867-2.077-8.88-2.451-9.48-7.832-0.339-3.051 0.75301-6.348 2.886-8.656 0.352-0.961-1.441-1.775-0.413-2.06 6.141 1.004 11.556 4.929 18.548 3.709-5.459-2.235-11.971-3.418-17.312-5.771-3.793 2.762-9.873 1.56-12.777 4.534 1.072 1.683 2.85 4.834 2.061 7.007-2.415-1.902-4.376 0.365-6.595-2.062-0.19 4.201 6.771 4.628 4.534 8.244 1.628 1.119 4.503 0.992 4.534 3.709-2.337 0.273-3.698 1.523-5.358 2.473 1.968 1.323 6.072 0.826 8.656 0.412v1.649c4.47 1.045 7.975-2.839 11.128-0.413-2.066 0.408-1.962 2.985-4.946 2.474-0.354-1.315 0.648-1.275 0.824-2.061-2.296 0.726-4.451 1.593-7.831 1.237-0.794-0.168-0.326-1.598-1.649-1.237-5.202 0.255-8.018-1.875-10.304-4.534 2.499 5.939 11.794 8.62 18.135 7.007-1.665 3.344-7.99 1.297-10.716 1.648 2.415 1.939 12.44 5.343 12.777 1.648-1.587 0.247-5.327 1.639-6.183 0 3.333-0.78799 5.815-2.429 8.656-3.709-0.634 1.564-2.663 1.732-3.297 3.297 1.436 9.99e-4 3.918-1.722 4.534 0-1.492 0.707-2.608 1.788-3.709 2.885 4.376 1.371 7.846 0.15501 10.304-0.824 1.986-0.791 4.616-1.152 5.77-2.061 2.762-2.171 2.069-7.409 6.183-7.419-0.46501 6.247-8.54 11.729-14.014 12.365-5.677 0.66-11.821-1.867-16.899-2.061 1.764 1.123 3.1 2.673 5.768 2.889zm138.9-27.203c-0.40599-1.106-2.595-0.428-3.298-1.237 0.92-1.554 3.831-1.115 4.123-3.297-1.699-0.324-2.117 0.632-3.71 0.413 0.743-1.867 3.378-1.844 4.121-3.709-0.25-0.712-1.954 0.032001-2.062-0.825 0.89999-0.219 2.667-0.998 2.886 0.412-0.007996 1.778-2.054 1.519-2.061 3.297 2.102-0.814 1.761 1.899 2.885 0.825 0.43901-1.538-1.545-0.653-1.236-2.061 0.523-0.988 1.807-1.216 1.648-2.886-2.688-1.203-6.114 0.125-7.83 1.237-0.016998 1.727 1.434 4.973-0.825 5.358-0.19299-1.919-0.55699-2.75 0-4.534h-2.062c-1.55 3.021-0.119 5.333 2.474 7.007-0.37199 4.806-0.87399 9.661-4.122 12.777-0.54901 0.527-1.884 0.609-2.885 1.236-6.015 3.767-13.648 8.132-21.021 7.831-0.063004 0.486 0.070007 1.17-0.412 1.237-2.826-0.2-6.237-0.158-7.831 2.473 0.86 1.338 2.684 1.713 4.946 1.648 0.996-0.99-1.001-1.091-0.41299-2.885 1.002 0.64899 1.762 1.538 3.71 1.237 0.070007-0.616-0.147-1.521 0.41299-1.648 0.59401 0.23 1.006 0.643 1.235 1.236-0.47499 1.037-1.726 1.297-2.472 2.061 1.48 0.971 3.441-0.508 5.77 0 0.342-1.206-2.457-1.337-1.236-2.061 2.314 1.49 5.409 0.29 7.831-0.412 0.394-0.768-1.234-1.378 0-1.649 1.651 2.112 6.519 0.996 7.419-1.237-1.301-1.066-1.763-0.5-3.71-0.412 0.24899-1.432 3.826-1.945 1.649-3.297 2.72 0.080002 4.036-0.771 5.771-2.474 1.459-0.223 1.014 1.46 2.474 1.237 1.896-0.577 3.396-1.549 4.946-2.473 0.605-1.568-1.844-0.081001-1.238-1.648 2.449-0.574 5.017-1.029 5.771-3.297-1.189-0.459-2.556-0.742-4.122-0.824v2.885c-4.231-0.402-2.3 5.062-6.595 3.297 1.938-1.359 3.012-3.583 5.358-4.533-0.48601-0.201-0.93501-0.439-1.236-0.825 0.329-1.458 2.407-1.166 2.885-2.473-0.28499-0.813-2.299 0.101-2.472-0.825 0.85001-1.622 3.248-1.697 4.12-3.298-1.747 0.016998-3.264-0.194-3.71-0.412 1.263-0.936 2.796-1.601 4.124-2.472zm-114.17-7.419c1.975 1.689 6.641 3.342 9.068 2.061-2.048-0.013-1.314-2.808-2.473-3.71-2.815-0.067001-5.193 0.304-6.595 1.649zm68.421-1.237c-3.097 1.853-8.326 3.761-8.656 7.007 0.974-2.196 0.40601 1.322 2.061 0.824 3.055-1.486 8.367-4.153 6.595-7.831zm73.779 2.061c2.268 0.731 4.473-0.258 5.77-1.648-2.189 0.283-4.516 0.43-5.77 1.648zm-130.66 5.771c0.604 0.79 2.971 1.948 4.122 0.824-1.869-1.247 0.459-0.105 0.825-0.824-0.46301-2.065-4.447-2.2-4.947 0zm1.649-7.007c-1.29 0.083-3.025-0.279-3.709 0.412-0.042007 1.829 2.14 1.432 2.473 2.885-1.025 0.486-3.214-0.191-3.297 1.236 2.388 0.467 6.756 0.456 9.48 0.825-2.648-0.787-4.554-2.316-4.947-5.358zm7.42 4.946c1.496-1.504-0.578-2.725-1.648-3.297-0.727-0.388-2.383-2.298-4.123-1.648-0.66 1.622 1.78 0.143 1.649 1.236-0.061996 0.762-1.396 0.253-1.649 0.824 0.56299 2.804 3.802 2.464 5.771 2.885zm116.23-0.413c1.803-0.533 2.591-2.08 3.71-3.297-1.335 1.002-2.85 1.823-3.71 3.297zm-244.01-2.473v0.824c0.644 1.267 1.435-0.716 1.648-1.236-0.778-0.091999-0.908 0.465-1.648 0.412zm229.58 0.824c0.993 1.515 0.72301 2.473 0 4.123 5.709-0.474 12.077-0.289 13.19-5.358-4.407 0.952-10.08-0.09-13.19 1.235zm-126.95 0.826c2.958 1.03 6.535 3.627 9.479 3.297-1.928-0.663-3.553-1.995-3.297-3.71-1.948-0.492-5.48-2.382-6.182 0.413zm237.82 8.654c0.32199-1.834-0.54999-2.473-0.41199-4.121 0.84 0.229 0.80899 1.24 1.648 0.412 0.83002-3.859-2.212-6.022-3.71-6.183 1.94 2.666-0.255 7.493 2.474 9.892zm-191.25-0.824c0.24301-1.754-0.297-2.726-0.41299-4.122-3.153-0.831-3.287-4.682-7.007-4.946-0.20599 1.718 1.205 1.818 0.825 3.71-1.953 0.304-2.834-0.464-4.534-0.413 0.15401 1.907 3.767 0.354 4.122 2.061-0.12201 0.84-1.115 0.808-1.237 1.649 2.127 0.081001 4.663 1.918 5.771 1.648-1.262-0.81-3.287-3.019-2.885-4.122 1.276-0.414 1.601 2.193 2.473 0.824-0.55299-0.271-0.767-0.881-0.824-1.648 2.232 0.791 2.546 3.499 3.709 5.359zm-54.819-5.357c-1.209-1.815-4.106-1.939-6.183-2.886 1.146 2.406 4.537 2.27 6.183 2.886zm16.486-2.062c0.398 2.076 3.222 1.725 4.123 3.297-0.127 0.972-1.432 0.768-1.237 2.062 1.167 0.62 1.905 1.666 3.71 1.648-1.17-1.827 0.73299-1.302 1.236-2.473-1.295-1.866-3.807-2.513-4.534-4.946-1.573 0.517-1.986-0.364-3.298 0.412zm55.644 6.595c5.555 0.472 8.156-2.01 10.305-4.946-0.851-0.112-0.098999-1.825-1.236-1.649-2.147 3.074-7.405 3.039-9.069 6.595zm-167.34-2.473c0.63-0.431 2.445-3.272 0.413-3.71 0.362 1.49-1.61 2.751-0.413 3.71zm106.75 2.061c-0.67-2.003 1.851-1.925 2.886-3.297-4.696-0.387-8.02-2.148-13.602-1.648 2.004 3.216 7.162 3.278 10.716 4.945zm211.03-3.71c-0.09201 0.78 0.465 0.91 0.41299 1.649-0.71799 0.030998-1.281-0.091999-1.648-0.412-0.093994 1.577 2.266 2.062 3.297 1.236-0.84702-1.536 0.034973-2.7 0.82498-3.709-1.557-0.183-1.936 0.813-2.887 1.236zm-298.41 2.474c-1.786 1.273-3.278-0.673-5.358-0.412-0.547 0.689-1.092 1.381-0.825 2.885 1.004 0.233 2.12 0.353 2.061 1.649-1.332 0.317-2.157 1.141-2.473 2.474 0.785 0.176 1.035 0.887 2.061 0.824 0.972-0.127 0.767-1.431 2.06-1.237 0.544-1.031-1.629-1.291-0.412-1.648 1.921 0.842 1.41-2.27 5.358-1.237-0.573-1.698 3.285-1.074 1.649-2.473-2.017 1.654-5.934 2.87-7.832 0.413 2.746 0.734 5.378 0.222 6.595-1.649-1.664-0.26-1.826-2.021-3.297-2.473-1.194 1.186 0.802 1.288 0.413 2.884zm89.029 0c1.165 2.275 5.306 3.755 8.244 2.885-2.423-0.188-3.321-1.899-4.122-3.709-2.084-0.435-2.358 0.938-4.122 0.824zm120.36-0.413c0.375 2.023-1.728 1.57-1.649 3.297 4.621 0.735 11.429 0.19 13.189-3.297-3.224-0.381-7.601 1.222-11.54 0zm12.365 1.237c1.424-0.361 2.854-0.717 3.71-1.648-1.702 0.084-4.042-0.47-3.71 1.648zm-66.772 0.824c1.384 0.651 3.144 0.076 3.71-1.236-0.953-1.353-3.443-0.442-3.71 1.236zm88.617 2.886c2.144 0.083 1.798-2.325 4.122-2.062-0.30002-0.936 0.74298-3.215-0.82501-2.885-0.31699 2.432-2.465 3.031-3.297 4.947zm-143.02-3.298c-0.048996 1.31 2.004 2.636 2.885 1.648-0.593-0.23-1.005-0.643-1.236-1.237 0.616-0.069 1.521 0.147 1.648-0.412-0.78-1.065-2.026-0.513-3.297 9.99e-4zm85.733 4.535c-0.946-1.254 0.018997-4.417-1.238-5.358 0.020004 1.914-0.338 6.366 1.238 5.358zm75.84 0.824c1.246-1.646 4.512-3.448 3.708-5.771-1.361 2.072-4.03 2.839-6.182 4.122 0.604 0.358 1.307 0.617 1.236 1.649-1.803 0.807-3.001 2.22-3.298 4.533 1.114-0.485 3.003-1.646 3.298 0.413 3.851-1.287 7.465-7.421 7.007-10.304-1.531 1.907-2.752 6.307-5.769 5.358zm-282.75-0.824c1.349-0.164 1.003-2.02 1.236-3.298h-1.236c-0.674 0.666 0.367 1.723 0 3.298zm152.09 3.709c1.454-0.056999 1.843-1.179 3.297-1.236 1.117 0.806 2.248 1.599 2.473 3.297-1.296 1.727-3.763 2.282-6.594 2.473-0.21901 1.567-1.205 2.367-1.649 3.709 3.225 1.156 7.632 0.624 10.716 1.649 1.622 0.53799 2.28 2.526 3.71 1.648-0.589-5.65 0.61101-10.941-1.649-14.426-3.501 0.895-8.621 0.173-10.304 2.886zm14.426-3.709c-0.939-0.116-1.55 0.098999-1.648 0.824 4.174-0.042999 11.592 0.896 16.076-0.824-2.332-0.644-3.976 0.469-5.771-0.825 7.906-0.306 16.477-0.74 19.783 4.534-1.96 0.098999-4.644-0.523-4.945 1.237 1.726 0.62 6.28 0.889 7.42-0.413 0.28799-1.799-1.189-1.833-1.236-3.297-12.025-5.191-31.529-4.689-44.516-0.824-0.92 1.553-3.135 1.811-3.297 4.122 1.237 1.783 7.034 3.213 7.419 0-1.06-1.938-3.433 1.335-5.358-0.412 3.134-3.324 9.838-5.272 16.073-4.122zm-52.759 0.824c-1.417-2.106 1.685-1.051 2.061-2.474-3.482-0.416-5.305-0.113-9.067-0.412-0.55501 1.163 2.184 1.033 0.82399 1.649-1.948-0.525-2.917-2.029-5.358-2.062 2.399 2.548 6.34 3.552 11.54 3.299zm4.123-1.649c1.014 1.144 4.592 0.647 3.297 2.885 1.095 0.569 3.394 2.081 4.946 0.825-1.749-0.279-1.734-0.649-0.412-1.236-0.668-0.706-2.589-0.159-2.474-1.648 0.005997-0.681 1.144-0.231 1.237-0.825-1.568-1.28-5.425-2.745-6.594-9.99e-4zm31.324 0.825c0.207-1.297-0.89801-1.612 0-2.474-0.616 0.071003-1.521-0.146-1.648 0.413 1.249-0.014 0.39902 2.073 1.648 2.061zm-150.86 0.411c0.24-1.367-1.376-2.983-2.061-2.061 1.008 0.365 0.446 2.302 2.061 2.061zm319.85 0.413c1.32 3.188 5.126-0.606 6.595 0.412 0.36899 2.843-3.801 1.146-4.533 2.886 2.677 2.165 8.84 2.083 9.066-2.473-0.84-1.024-1.684-0.574-2.885 0-0.47-0.905-1.063-1.685-0.82303-3.298-3.084 0.213-3.858 2.738-7.42 2.473zm-252.25-2.061c-0.038002 3.798 2.313 7.235 5.77 6.183 0.544-1.031-1.629-1.291-0.412-1.648 1.43-0.332 1.584 0.614 2.885 0.412-0.694-1.641-2.86-1.812-4.122-2.885-0.163 0.708 0.612 1.057 0 1.236-1.42-1.053-2.788-2.158-4.121-3.298zm160.34 4.121c3.24 0.836 7.938-0.256 8.655-3.297-4.617 0.074001-9.524-1.101-8.655 3.297zm-108.4-2.473c-0.43901-0.295-1.898-1.609-2.473-0.412 0.438 0.295 1.897 1.609 2.473 0.412zm128.19 3.298c-0.30899 2.702 1.632 4.527 0 7.007 1.212 0.849 2.257 1.864 3.71 2.473-0.15799-2.332-1.896-2.725-2.062-4.946-0.22-2.908 3.455-6.148 1.236-8.656-0.39401 1.941-0.509 4.161-2.884 4.122zm-11.13-1.649c0.96298-0.137 1.776-0.422 2.062-1.236-0.849-0.856-2.09 0.001003-2.062 1.236zm-182.18 2.061c1.777-1.12 1.295 0.742 2.886 0.824 0.461-1.325 1.128-2.444 1.237-4.122-1.271 1.202-3.975 0.972-4.123 3.298zm120.77-2.061c-2.48 0.126-5.639-1.043-7.419 0.825 1.218 0.887 2.816-0.246 4.946-0.412 3.212-0.251 8.379 1.492 8.655-1.237-2.044 0.242-4.027 0.715-6.182 0.824zm135.6 6.183c0.17801-4.33-4.065-6.39-8.243-5.771 1.654 1.724-0.741 2.722 0.824 4.534-0.61899 0.617-1.734 0.738-2.06 1.648 1.291 2.55 3.634 5.8 7.007 4.947 0.47-2.419 2.382-3.123 2.472-5.358zm33.386-2.062c0.66299-0.868 0.47202-3.523-0.82498-3.709-0.029022 1.542 0.17499 2.849 0.82498 3.709zm-229.17-1.236c1.967 0.506 3.018 1.929 5.771 1.648-0.487-2.137 1.58-1.717 2.061-2.885-2.19-0.469-6.961-1.6-7.832 1.237zm70.895-0.412c-0.97301-0.126-0.767-1.432-2.062-1.236-0.241 1.103 1.697 2.099 2.062 1.236zm-14.427 5.771c-2.292-2.317 0.94299-7.897-4.122-6.183 0.045013 6.779-0.061996 15.598 0 21.021 2.205-0.818 3.698-2.348 4.534-4.534-1.493-3.303-1.069-6.495-0.412-10.304zm127.78-5.771c0.044006 1.056 0.233 1.965 0.823 2.473 0.185-0.811 1.53-2.549 0.41299-3.297-0.17001 0.518-0.53201 0.842-1.236 0.824zm-176.41 1.648c1.472 0.59 2.657 1.465 4.534 1.649 0.45601-3.598-3.493-4.735-4.534-1.649zm49.873 14.427c2.045-0.294 2.198-0.334 3.709 0.412-1.003-5.924 3.349-8.883 0.412-13.189 0.51399-0.997 1.02-2.002 1.236-3.297-1.231-0.829-3.889-0.233-5.771-0.412 0.523 5.371-0.64999 10.928 0.414 16.486zm14.426 1.236c1.702 1.746 3.678 0.259 5.358 0.824-0.005005 0.54501-0.724 0.37601-0.825 0.824 2.572-0.511 3.446 0.676 5.358 0.824-2.106-2.452-6.73-4.572-9.891-2.472zm12.365 2.886c-6.621 2.397-13.431-1.14-17.312-4.122-0.26201 1.387 0.532 3.828-0.412 4.534-3.721-4.466 1.464-14.482-0.41301-21.021-5.223 0.742-0.66899 8.873-3.708 11.953v5.359c-0.48601 0.063995-1.171-0.071007-1.237 0.412 0.91 0.051003 0.176 1.749 0.412 2.473 5.055 0.926 6.179 3.479 11.953 2.062 0.12099 0.84 1.115 0.808 1.236 1.648 0.285 1.658-0.395 2.353-0.411 3.71 0.28999 3.418 4.774 2.643 4.945 6.182-1.216 1.9-1.59 2.231-1.648 4.947 3.257 1.197 8.562-0.196 12.776 0.824-0.065002-3.892 6.44-4.382 6.595-0.412 1.143-0.911 4.489 1.183 4.947-0.412-3.664-5.815-7.914-11.046-18.549-9.893-1.326 0.734-1.819 2.301-3.71 2.473 0.50499-2.655 3.606-2.714 5.358-4.122-0.50099-0.047005-0.976-0.124-0.823-0.824 2.887-2.972 9.588-0.348 13.189-0.825-1.577-1.582-4.168-2.151-6.595-2.885 0.78799-0.174 1.774-0.14899 1.648-1.236-1.511 0-3.184 0.16-2.885-1.648 4.315 0.768 6.578 3.588 9.892 5.357-0.98201-8.729-12.779-4.44-19.372-7.83 0.20801 2.266 3.949 0.99799 4.124 3.296zm11.128-18.549c-0.231-1.003-0.353-2.12-1.648-2.06-0.31299 1.548 1.078 1.395 1.648 2.06zm-81.61 1.237c1.418 0.78 2.602 1.795 4.946 1.649-0.382 1.667 1.208 2.238 2.473 3.297-1.049 0.049995-1.598 0.6-1.648 1.648 2.595 1.973 6.636 1.011 9.48 0 0.56601 1.304 0.090012 1.378 0 2.886 1.87 0.704 5.975 0.65 6.183-0.413 0.95801 0.278 1.731 0.742 1.648 2.061 3.807 1.663 5.883-1.378 8.656-2.061-0.17799 0.647-1.296 0.352-0.82399 1.648 1.899-0.505 3.656 1.263 4.946 0-0.604-1.182-1.756-1.815-2.473-2.885-3.162 0.638-6.218-1.346-9.068-1.648-0.76401-0.082001-1.383 0.559-2.061 0.412-2.905-0.626-5.951-2.351-9.068-3.297-1.394-0.423-3.049 0.16-4.121-0.412-0.30101-0.161-0.491-1.111-0.825-1.237-1.874-0.708-2.468-0.114-3.709-0.824-2.077-1.188-3.057-3.812-5.771-3.71 0.18701 1.545 2.524 0.937 1.236 2.886zm122.42-1.648c0.138 1.648-0.53 4.102 1.235 4.122-0.74597-2.472 2.402-4.244 0.41302-5.358-0.116 0.846-1.102 0.822-1.648 1.236zm-27.616 0c0.020996 1.809-1.363 2.208-1.648 3.71 4.922 0.801 6.495-1.748 9.479-2.886-0.61699 0.893-2.063 0.96-2.062 2.473 2.737-1.712 4.597-2.176 7.42-3.297-3.948 0.785-9.332-0.697-13.189 0zm-33.799 2.473c-0.233-1.161-2.758-2.161-3.298-1.649 0.867 0.783 2.111 1.186 3.298 1.649zm-39.981 0.824c1.049-0.049999 1.598-0.6 1.649-1.649h-1.236c0.091995 0.779-0.465 0.909-0.41299 1.649zm32.563 7.007c3.449-1.387 10.46-2.708 16.073-3.297-4.003-2.728-9.758-3.706-15.25-4.947 0.072998 1.972-0.10701 5.844-0.823 8.244zm-49.462-4.534c-1.288 0.188-1.317-0.881-1.237-2.061-1.834 0.322-2.474-0.549-4.122-0.413 0.526 1.821 3.219 3.64 5.359 2.474zm78.314 1.649c1.858-0.202 4.131 0.010002 4.533-1.648-1.204-1.655-4.295-0.164-4.533 1.648zm60.176-0.412c-0.45898-0.814-3.407-1.505-3.709 0 1.419 0.459 3.295 0.916 2.061 2.884 2.896 0.285 4.523-0.697 7.42-0.412 0.25699-2.455-4.138-0.26-4.535-2.061 1.496-0.978 5.31 0.363 6.184-1.236-2.13-0.344-3.854-1.092-6.184-1.237-0.574 0.525-0.17999 2.02-1.237 2.062zm54.82-1.237c1.496-0.397 0.34601 1.852 1.648 1.648 0.57898-1.019 1.421-0.727 2.474-0.412 0.21497-2.087-3.26-2.67-4.122-1.236zm-193.31 1.649h-1.237c-0.175 0.787-1.177 0.746-0.824 2.061 2.762 1.443 4.559 1.52 8.244 1.649-1.691-1.606-5.786-0.81-6.183-3.71zm-92.327 2.472c0.665 0.572 2.125 0.349 2.473 1.237-0.847 0.115-0.823 1.101-1.236 1.648 3.05-1.209 6.522-1.996 8.243-4.534-2.731 0.979-6.295 1.125-9.48 1.649zm268.32 1.649c-1.26 0.298-1.501-0.421-2.472-0.412 1.828 1.942 4.594 3.016 7.83 2.473-0.25299-1.375-1.209-1.407-0.41202-2.885-3.549 0.526-4.68-1.365-7.418-1.649-0.087982 1.737 1.845 1.453 2.472 2.473zm-103.87 1.237c2.303-0.236 9.744 1.272 10.717-1.648-3.535-2.081-7.196 1.16-10.717 1.648zm-64.298 0c-0.177 0.912 2.476 1.031 1.236 1.648-1.071-0.16499-1.243-1.23-2.473-1.237-1.053 0.046005-1.442 0.756-2.061 1.237 1.028-0.293 1.693 1.814 2.473 0.413-0.448-0.098999-0.99-0.679-0.41301-0.824 0.38501 0.439 1.521 0.127 1.237 1.236 3.24-0.606 5.834-1.86 9.892-1.648-1.444-2.566-6.864 0.3-8.656-2.473 0.123 1.082-1.599 0.324-1.235 1.648zm75.84 0c1.295 0.195 1.684-0.514 2.062-1.237-0.78 0.092995-0.911-0.465-1.649-0.412-0.13199 0.558-0.588 0.788-0.41299 1.649zm-188.36 1.648c0.123-3.126-5.831-3.316-6.182-0.412 1.965 1.332 6.187 0.407 8.243 1.649-0.181-1.447-0.868-1.748-2.061-1.237zm121.59 1.649c1.822 1.083 4.486-0.047997 6.183-0.412-0.47101-1.558-1.789-0.59499 0-1.649-2.531-1.092-4.923 0.606-6.183 2.061zm47.4-0.824c2.445 0.222 7.221 1.649 8.243-0.412-2.261-1.711-6.17-1.114-8.243 0.412zm16.486 2.473c-1.658 1.62 2.04 4.013 2.887 5.77 1.426-1.937-0.83-3.121-0.825-4.946 1.178 0.687 1.836 1.538 2.474 3.297 0.444 1.23-1.062 4.411 1.648 3.71-0.731-4.901-3.515-7.751-4.945-11.953h-4.123c-0.233 2.569 2.598 2.073 2.884 4.122zm-68.42 0c0.54201-1.381 2.135-1.712 2.886-2.885-3.726 0.125-5.571 4.316-6.183 6.182 0.718-0.491 3.028-1.494 3.297 0-3.101 0.471-5.463 1.681-6.594 4.123 4.012-2.842 10.899-3.547 14.014 0.824-11.052-1.89-16.153 5.487-20.197 11.953 1.77 0.783 2.74-0.198 4.534 0.412 0.459-2.288 1.865-3.63 4.534-3.709 1.081 0.56699 1.785 1.513 1.649 3.297 2.869 0.154 6.425-0.38 8.655 0.412 0.967-1.219 1.738-4.409 1.236-5.771-1.29-0.496-2.122-1.45-2.061-3.297 2.945-2.24 8.693-3.062 7.007-8.656 0.59099-1.194 1.873-1.7 3.297-2.062 1.429 1.574 2.887 2.579 4.946 0.825-1.584-0.478-0.511-3.611-0.824-5.358-6.462 1.546-12.728 6.823-20.196 3.71zm61.826-2.885c1.607-0.095001 2.137 0.886 3.298 1.236 0.30701-1.269-1.131-0.792-0.823-2.061-1.185-0.084999-2.096 0.105-2.475 0.825zm-1.236 0.825c-0.061005 1.159 1.01 1.188 2.061 1.236 0.069-1.275-1.45-1.854-2.061-1.236zm-137.25 2.472c1.458 0.24899 2.386-2.136 0.824-2.473 0.532 1.632-1.356 0.841-0.824 2.473zm192.07 0c2.662-0.71101 7.521-2.285 4.946-2.061-2.455 1.116-7.24-0.096001-7.831 2.885 0.867 0.151 1.703-0.508 2.885-0.824zm60.589-0.824c0.76599 0.716 2.954 0.532 3.298-0.413-0.31-1.2-3.423-1.208-3.298 0.413zm-173.52 0.412c1.245-0.127 3.205 0.458 3.297-0.824-1.035 0.339-3.549-0.801-3.297 0.824zm75.015 13.19c-0.42299-5.623-1.592-10.498-4.12-14.014 0.99399 3.434 2.285 10.055 4.12 14.014zm60.589-9.069c0.78 0.092995 0.909-0.464 1.649-0.412-1.007-2.257 0.83502-2.277 0.824-4.534h-1.648c-0.56601 1.494-1.888 3.021-0.82501 4.946zm-145.91 0.825c2.098-0.788 3.699-2.071 4.533-4.123-2.16 0.459-3.874 3.536-4.533 4.123zm-112.52 2.885c2.579-0.443 4.684-1.362 4.947-4.122-1.057-1.142-2.446-1.951-4.123-2.473 1.03 2.566-0.251 4.481-0.824 6.595zm134.37-4.121c0.487 0.475 1.458 0.466 2.473 0.412 0.28899-1.269 0.28899-0.792 0-2.061-1.539-0.165-2.418 0.329-2.473 1.649zm-35.859 12.365c2.146-2.894 2.598-8.722 0.412-11.954 0.573 2.707 0.35599 8.263-0.412 11.954zm-44.102-8.244c1.825 0.451 2.049-0.69801 3.297-0.824-0.168 0.993 0.753 0.896 0.413 2.061 1.166-0.070999 2.828 0.354 2.885-0.824-0.788-0.174-1.773-0.14899-1.648-1.237 1.257-0.161 2.099 1.083 2.473-0.412-2.228-1.492-6.974-2.789-7.42 1.236zm87.381-2.061c0.899 28.143 1.493 55.993 1.648 84.909 0.076004 14.259 1.236 28.657 1.236 42.865 0 13.861-0.522 27.626 1.648 39.981 2.101-1.746 2.657-5.087 2.886-7.832 0.50101-6.039 0.078003-12.404 0.412-18.96 1.631-32 1.056-62.637 2.886-94.8 0.189-3.356 1.052-6.588 1.236-9.893 0.68301-12.287 0.265-24.565 2.061-35.859-3.721-1.496-9.842-1.589-14.013-0.411zm-32.975 3.71c1.78-0.156 3.218-2.811 2.473-4.122-0.73901 1.459-1.886 2.51-2.473 4.122zm-26.379 4.121c-0.75101 1.27-2.31-0.828-2.885 0.413 1.697 0.638 1.939 2.733 3.297 3.71 0.39699-0.839 1.583-0.891 2.885-0.824 1.021 0.627 1.741 1.556 2.061 2.885h4.123c-0.679-1.994-1.718-4.922-3.298-7.007-1.176-1.551-3.313-2.234-4.946-3.297-3.394-2.208-4.179-4.53-8.656-2.885 3.612 1.196 6.201 3.414 7.419 7.005zm110.88-2.884c-0.269-1.655-1.035-2.812-1.648-4.122 0.07901 1.844 0.44702 3.398 1.648 4.122zm98.51 0.824c1.315-0.354 1.275 0.648 2.06 0.824-0.772-2.393 1.11-3.932 2.062-5.771-2.776 0.24699-4.113 1.934-4.122 4.947zm-160.34 11.953c-6.274 0.33-16.168 0.872-24.318 0-1.487 3.383-2.179 7.369-2.061 10.717 0.306 8.69 8.329 17.96 14.426 20.196-5.147-5.271-1.329-14.142-3.297-19.785 0.87599-2.329 4.394-2.357 6.596-1.237 2.883-1.649 7.261-1.807 9.479-4.122 0.005997 0.819 1.125 0.524 0.825 1.648 0.102 2.159-5.301 2.599-2.061 4.122-3.024 0.005005-4.017 4.219-7.419 2.474 1.038-1.572 3.593-1.627 4.533-3.297-3.504 0.204-5.189 2.229-6.595 4.533-0.709 1.077-3.293 0.28001-3.709 1.648 0.642 0.87 1.529 1.495 3.297 1.237 1.287-0.362 1.353-1.944 2.474-2.473 3.325 0.983 4.76-3.479 8.655-3.297 0.537-1.628-1.512-0.998-0.412-2.062 1.051 0.048004 2.121 0.077003 2.061 1.236-3.097 3.636-8.608 4.858-11.128 9.068 0.187 9.705 6.593 13.19 12.777 16.898-1.199 0.072006-2.911-1.447-3.709-0.41199 1.271 1.064 3.638 1.034 5.358 1.648 0.123-0.811-0.55699-0.81601-0.82399-1.236 1.657-0.28299 2.353 0.39601 3.709 0.41301-4.442-2.84-9.924-4.641-8.655-13.19 1.826-2.628 5.04-5.406 9.479-4.122-0.99899-10.198-0.782-25.829-0.82399-37.096-7.682 0.883-7.288 10.47-8.657 16.491zm22.67 35.447c3.21-0.48601 6.888-4.705 6.182-9.068-0.513-3.167-3.655-2.896-4.533-5.77 5.815-0.601 9.56 2.147 9.067 7.007-0.58801 5.791-9.019 8.103-11.128 11.953 1.459-1.202 1.556-0.396 3.297 0 8.211-4.092 18.366-8.185 16.486-21.021-1.833-2.837-6.224-3.118-7.831-6.182 0.399-0.699 1.14-1.059 2.473-0.825-1.157-1.028-3.775-2.372-2.06-4.946 3.775 4.33 15.423 0.79 16.073 8.244-0.86101 0.898-1.175-0.206-2.472 0 1.671 14.208-8.382 20.17-16.898 25.554 6.245-2.207 14.193-5.347 18.547-9.479 7.446-7.069 13.144-18.741 10.717-30.502-8.422 0.631-17.744-0.302-26.38 1.237-2.517-3.527-1.688-10.402-4.122-14.014-1.898-0.985-2.348-3.422-4.533-4.122-0.53 16.298-2.537 34.136-2.885 51.934zm51.11-46.576c1.288-1.004 3.5-4.694 2.472-5.358-1.016 1.423-3.593 3.134-2.472 5.358zm-114.58 0.825c-0.635-1.701-0.459-4.212-2.061-4.946 0.065002 1.952-0.521 1.017-1.648 1.236 1.815 0.65601 1.904 3.041 3.709 3.71zm-46.988-3.71c0.936-0.3 3.215 0.743 2.885-0.824-1.076 0.16-2.262 0.211-2.885 0.824zm36.271 2.061c-0.38-1.557-2.528-3.5-4.122-2.473 1.436 0.762 2.783 1.613 4.122 2.473zm112.52 0.824c-0.73399-1.065-1.61-4.142-2.885-3.297 1.311 0.75 0.30899 3.812 2.885 3.297zm-84.495 4.535c0.88699-3.097 2.988-4.981 4.946-7.007-2.573 1.14-5.258 4.352-4.946 7.007zm98.922 2.884c0.089005-2.938 0.508-6.181 1.648-9.068-0.089996-0.321-0.345-0.479-0.825-0.41299-1.253 2.829-2.049 5.829-0.823 9.481zm-99.746-7.419c1.163 0.063004 1.033-1.166 1.648-1.649-1.29-0.19-1.839 0.359-1.648 1.649zm-112.52 0.825c0.885 0.765 2.196 1.102 3.71 1.236 0.078999-1.727-2.023-1.273-1.648-3.297-1.468-0.095001-2.155 0.592-2.062 2.061zm83.672-0.825c0.152-1.25-1.343-0.856-2.061-1.237-0.188 1.288 0.882 1.318 2.061 1.237zm138.9 1.236c1.677-0.382 2.974-1.147 3.71-2.473-1.339 0.724-2.92 1.204-3.71 2.473zm-23.083 1.237c-0.039993-1.471-0.19099-2.83-1.235-3.297-0.112 1.623 0.158 2.864 1.235 3.297zm-101.4 0.413c-0.339-1.035 0.802-3.549-0.823-3.298-0.028992 1.403-0.12999 2.876 0.823 3.298zm13.19-0.413c1.174 0.056 1.576-2.088 0.41301-2.061-0.347 0.479-0.54501 1.105-0.41301 2.061zm97.686 5.358c1.88-0.573 2.401-6.286 0.412-7.007 0.31999 2.795-0.563 4.384-0.412 7.007zm-108.4-3.709c0.082001 1.43-0.14601 3.168 1.236 3.297-0.028-1.489-0.12799-3.301 0.824-1.649 0.761-1.522 1.104-3.908-0.824-4.534 0.35202 1.727-0.50398 2.244-1.236 2.886zm-0.412 2.885c-0.183-2.016 0.597-4.994-1.236-5.358 0.20898 1.988-0.24802 4.644 1.236 5.358zm-69.245-1.237c-1.882 0.235-3.592-1.197-4.534 0.41299 3.113 1.42 4.298 4.77 5.358 8.243 1.031-1.717-0.263-5.758 0.824-7.419 0.85 0.112 0.098 1.825 1.236 1.649 0.923-2.375 3.178-3.417 4.534-5.359-2.023-0.375-1.57 1.728-3.297 1.649-0.568-1.081-1.513-1.785-3.297-1.649-0.007004 1.093 0.228 2.428-0.824 2.473zm168.17 0.825c-0.612-0.648-0.483-4.158-1.649-2.884 1.121 0.138 0.324 4.314 1.649 2.884zm-121.59 8.655c0.177 1.771-0.242 2.548-1.649 4.122 6.157-1.705 1.608-7.955-2.06-9.067 14.83-2.733 35.648 1.51 52.758-0.824-0.996-0.79-3.312-0.26-4.946-0.413 0.403-1.064 0.873-3.263-0.824-3.297-2.112-0.327-1.186 2.386-2.061 3.297-3.497 0.062004-6.153-0.716-9.893-0.412 1.524-1.556 0.304-3.416-0.824-4.534-2.324-0.264-3.225 0.896-4.534 1.648-0.10501 1.617 1.491 1.532 1.237 3.297-5.149-0.719-8.054 0.089996-13.602-0.412-0.604-1.148 0.407-2.272-1.237-2.886-1.897-0.524-0.657 2.09-1.648 2.473-5.487 0.146-11.76-0.494-16.075 0.824 0.445 2.548 5.061 3.208 5.358 6.184zm33.386-7.831c1.37 0.507 1.008-2.786 0.412-2.885 0.202 1.301-0.743 1.455-0.412 2.885zm96.862 0c-0.007004-1.093 0.22899-2.427-0.825-2.473 0.25 0.85-0.666 2.864 0.825 2.473zm98.509 4.946c3.896-0.228 5.581-5.978 1.648-7.419 0.513 2.579-1.952 5.365-1.648 7.419zm-244.01 4.947c1.17 1.299 4.032 2.387 4.534 1.648-0.293-1.081-2.353-0.395-2.473-1.648-0.162-4.591 6.445-7.791 2.061-11.542 2.313 6.098-3.246 7.317-4.122 11.542zm-54.819-5.359c-0.283-1.86 0.691-0.945 1.648-0.824-0.229-2.381-1.134-4.086-2.885-4.946-1.834 1.545-2.535 5.794 1.237 5.77zm18.96-2.473c1.107 1.778 2.066 3.704 3.71 4.946-0.39-2.221 0.046997-5.268-2.062-5.77-0.098 0.72401-0.708 0.939-1.648 0.824zm44.515 11.953c0.07 4.477-2.342 8.439-0.412 12.366 3.014 0.523 2.213-1.437 3.297-2.061 7.04-2.826 10.009-11.545 10.304-19.785 0.656 4.291 2.711 7.181 4.946 9.893-0.261-1.388 0.53101-3.829-0.412-4.534-0.039993 0.647 0.054001 1.429-0.825 1.236-0.299-3.283-2.34-6.049-2.473-8.243-3.171 0.287-4.659 0.287-7.831 0 6.115 4.036 1.366 12.686-6.594 11.128zm18.136-4.946c1.518-1.605 0.534-6.13-2.473-5.771 0.85202 1.897 1.322 4.174 2.473 5.771zm19.372-0.824c-0.005997-1.093 0.229-2.428-0.824-2.473 0.115 0.939-0.099991 1.549-0.825 1.648-0.623-1.318 1.197-3.155-0.412-2.886-0.414 2.883-2.026 4.569-2.062 7.832 1.545-0.104 0.936-2.361 2.886-2.061-0.716 4.404 1.748 9.635-0.41301 12.777-1.224-1.271-0.87199-4.33-0.41199-6.182-0.709-0.163-1.057 0.611-1.237 0-0.556-1.816 1.801-2.838 0.41299-4.123-0.192 1.623-1.846 2.031-2.886 0.825-0.937-4.103 2.875-5.635 1.648-8.656-0.571 0.25301-0.061996 1.587-0.82399 1.649-0.24901-0.851 0.666-2.864-0.824-2.474-1.78 6.082-1.694 15.427 1.237 20.197 0.25101-0.985-0.517-2.99 0.412-3.297 1.163 3.234 2.304 6.49 4.947 8.243 0.231-1.626-1.727-3.192-0.41299-4.533 2.46 1.523 2.439 5.529 4.946 7.006 0.838 1.224 1.502 2.618 2.473 3.71 4.989-1.779 9.264 5.986 15.251 4.534-1.254-0.395-1.659-1.639-3.709-1.236-0.819-0.82999-1.95-1.349-2.473-2.474-11.585-3.876-19.422-17.204-15.663-31.326-1.093 1.27-0.097992 2.077-1.236 3.3zm114.17-3.298c-0.63599 10.803 2.326 18.007 10.304 20.197 1.017-1.474 0.70499-2.944 0.41299-4.946 1.61-0.45 1.932-2.189 1.648-4.534-7.477 0.475-10.603-7.18-5.358-11.542-2.188 0.425-5.076 0.146-7.007 0.825zm22.67 6.183c-0.173 1.888-3.009 1.113-3.71 2.473 2.438 0.104 4.734 0.062996 4.945-2.061-1.328-2.93-3.944-4.574-5.358-7.42 0.76599 2.944 3.052 4.368 4.123 7.008zm-40.395 0.412c0.076996-0.61 0.99699-0.378 1.649-0.41299 0.16699 1.207 1.078 1.67 1.648 2.473-0.883 0.402-2.742 2.539-2.06 4.122 2.569-2.103 4.384-7.152 3.297-11.541-0.813 0.286 0.101 2.3-0.825 2.473-1.564-0.85 0.035004-3.27-0.823-4.122-0.50101 0.736-0.074997 2.397-0.825 2.886-0.884-1.144-0.96301-1.421-1.648 0-0.129-0.558-0.58699-0.78799-0.41299-1.648-1.504 1.077-1.361 0.637-2.061-0.825-0.22 1.566-1.287 2.286-1.236 4.122 1.464-0.046997 1.498-1.524 3.297-1.237 0.341 1.334-0.513 3.565 0 3.71zm-25.142 30.501c-1.457-0.22099-2.123 0.349-2.474 1.236 1.46 0.222 2.124-0.34801 2.474-1.236zm12.366 6.595c0.107 1.392-3.508 2.829-1.648 3.297 3.785-0.885 9.148-0.192 13.602-0.412-1.23-3.166-3.651-5.143-5.358-7.831 3.794-1.719 10.356 0.854 14.425 0.411-1.33-2.025-4.063-4.646-3.708-7.005 2.503-0.12801 2.784 2.534 4.533 3.708 3.405 2.287 8.488 2.394 12.366 4.535-0.724-2.922 2.185-2.211 2.061-4.535-0.564-1.692-0.72101-1.648-0.41202-3.708 1.024 0.061996 1.276-0.649 2.061-0.82501-0.68799-1.82-1.329-3.784 0.41101-4.946-3.128-0.444-2.803-4.342-4.533-6.183-0.53799 0.973-0.17499 2.849-0.82498 3.71-0.54001-0.42001-1.518-0.404-2.06-0.824-1.558 1.326-2.42 3.35-3.71 4.945-2.777 1.723-6.523 1.231-10.717 0.82399 0.18199-0.95599 1.82-1.103 0.825-2.061-1.094-0.005997-2.429 0.229-2.474-0.825 0.31799-4.832 8.194-2.096 8.243 0.825 1.431-0.33099 1.585 0.61301 2.887 0.412 2.418-2.041 1.17-8.075-0.82498-9.48 0.62198-0.752 0.43799-2.31 1.235-2.885 0.79001 2.921 1.196 6.224 2.475 8.656 1.637-4.212-1.086-9.283-0.82501-14.013-2.566 2.379-5.977 1.328-8.243 2.884 0.716-3.385 4.29-5.715 3.297-9.48 1.146-1.327 3.82-1.126 4.122-3.297-2.49 0.12-5.551-0.33-7.419 0.412-0.72899 8.75-3.915 15.045-8.243 20.197 0.564 2.907-3.42 4.82-5.358 6.595-3.635 7.494-13.517 8.742-20.609 12.777 5.803 0.517 13.694-1.054 18.137 0.825-0.248 2.091-1.858 2.816-3.713 3.297zm-0.412 0c-2.518 1.605-5.506 2.737-7.42 4.946 3.785-0.2 8.54 0.571 11.13-0.825-3.679-0.145-6.788 0.035004-8.656 0 0.702-2.32 4.34-1.704 4.946-4.121zm23.08-33.798c0.47-1.691 2.096-0.365 2.887 0 1.387-0.949 2.289-2.381 2.473-4.534-1.931 0.404-1.58 3.092-3.709 3.297-0.987-3.392 3.749-4.444 4.121-7.831-3.641 1.035-5.542 5.995-5.772 9.068zm-115-2.062c0.029999-1.755 0.689-2.882 0.412-4.946-0.52701-0.021996-0.571-0.528-1.236-0.412 0.899 1.161-0.174 4.296 0.824 5.358zm197.84-1.648c1.136 0.24 1.723 1.026 2.887 1.237 0.45801-0.97-0.062012-3.89-1.238-4.534-0.607 1.041-1.455 1.841-1.649 3.297zm-98.508 15.251c1.102-2.639 2.406-3.929 3.708-7.007-2.022-0.375-1.57 1.727-3.298 1.648 0.114-4.695 2.9-6.719 3.71-10.717-1.394-0.158-0.648 1.825-2.472 1.237 0.065994-1.442-0.11099-2.639-0.825-3.297-0.059006 6.663-1.377 9.951-3.71 15.662 1.053 0.444 1.442-1.774 2.062-0.412-1.187 1.295-4.224 2.91-3.71 4.534 0.791-1.407 2.472-1.926 4.122-2.473-1.599 1.705-3.61 3.304-4.946 4.533-0.552 0.507 0.11301 0.572-0.41199 1.237-2.49 3.153-7.99 5.734-12.778 9.479 2.759-0.67601 4.402-2.467 7.007-3.298-0.00499 0.81999-1.123 0.52499-0.823 1.649 3.2-1.608 6.018-3.598 9.068-5.358-0.73401-0.245-1.712 1.209-2.062 0 1.307-3.229 7.038-4.224 7.418-7.007-0.17099 0.917-2.259 0.397-2.059-0.41zm-179.3-16.487c2.282 0.187 1.482 2.014 0.412 2.884 1.883 0.326 4.304 2.277 6.183 1.237-0.937 0.073006-2.402-1.392-1.648-1.648 4.813-0.001999 6.49 5.321 9.48 5.771-2.295-1.827-1.524-6.721-3.71-8.656-0.25 0.985 0.518 2.99-0.412 3.297-3.679-0.030998-4.184-3.235-7.007-4.122 0.417 1.929-3.098-0.074005-3.298 1.237zm-18.548 2.473c2.55 1.32 3.528-2.147 4.946-3.297-2.048 0.699-4.904 0.591-4.946 3.297zm47.4 1.236c-5.217 7.736 4.199 16.195 13.602 14.838 1.183-1.566 3.165-2.332 4.122-4.122-0.746-4.432 0.902-6.62 0.824-11.129-1.486-0.162-2.764-0.533-4.122-0.824 0.291 1.358 0.663 2.635 0.825 4.122-1.584 3.548-10.724 4.245-11.129 0-0.287-3.01 3.271-3.994 6.595-2.473-0.674-6.933-9.407-2.354-10.717-0.412zm20.609 4.122v-6.595c-1.61 0.832-1.817 5.845 0 6.595zm168.17 2.473c-0.29001-2.732 0.80899-6.853-1.235-7.832 0.96301 2.304-0.99701 6.672 1.235 7.832zm-176-4.121c-0.755 0.48-1.396 1.077-2.061 1.648 2.103 0.80701 3.468-2.394 2.473-4.947h-1.237c-0.45 1.826 0.699 2.051 0.825 3.299zm140.14 2.06c0.75-1.186 2.66-3.369 1.648-4.946-0.38699 1.548-2.047 3.98-1.648 4.946zm38.745-4.946h-1.648c-0.32498 1.587 1.972 1.587 1.648 0zm-116.64 2.06c0.556 0.562 2.877 0.787 2.885-0.412-1.478 0.104-1.51-1.238-2.885-1.237v1.649zm80.785 2.886c0.442-1.086 1.838-3.359 0.825-4.534-0.065002 1.557-2.709 3.611-0.825 4.534zm-146.73 0c1.131-0.381 1.723-1.3 2.062-2.473-0.558-0.13-0.788-0.587-1.649-0.413-0.568 0.532-0.409 1.791-0.413 2.886zm24.319 5.359c1.053 0.444 1.443-1.774 2.061-0.413 0.143 1.137-1.183 2.895 0 3.709 0.723-3.412 2.375-9.773 0-11.541-0.441 2.996-0.868 6.003-2.061 8.245zm100.98-4.947c-0.763-0.062004-0.25301-1.396-0.825-1.648-0.77701-0.093002-0.908 0.464-1.648 0.412 0.022995-0.526 0.528-0.571 0.41299-1.236-0.785-0.177-1.035-0.888-2.062-0.825-0.27501 3.058-1.333-0.58099-2.885 0 0.393 3.229 4.884 6.684 7.007 3.297zm2.885-0.824c-0.47501-1.449-1.23-2.616-3.297-2.474 0.59601 1.329 2.02 1.829 3.297 2.474zm64.3 2.061c-0.16901-0.993 0.75299-0.896 0.41299-2.061-2.415 0.62801-1.573-1.999-3.298-2.061-0.46597 1.591 0.276 4.36 2.885 4.122zm-126.13-2.885c-0.19099 1.29 0.35901 1.84 1.648 1.648-0.09201-0.78 0.465-0.91 0.41299-1.648-0.78401-0.773-1.035-0.045998-2.061 0zm177.65 4.946c2.887 0.414 4.558-0.389 5.358-2.061-0.47501-1.037-0.19501-2.827-1.648-2.885 0.046021 2.93-2.914 2.854-3.71 4.946zm-122-0.413c1.068 0.444 1.531 1.49 2.885 1.649 1.261-0.173 2.631-3.009 0.825-3.709 0.35101 2.274-2.725 1.122-3.71 2.06zm-137.25 7.007c-0.154 1.495-3.015 0.283-3.297 1.648 1.208 0.028999 2.324 0.14899 2.061 1.649 2.57-0.314 4.481-1.289 6.595-2.061-1.689-0.097-3.37-0.202-4.534-0.824 0.719-0.382 2.212 0.013 2.061-1.237-5.345-1.306-10.926-1.433-15.25-2.884 2.236-1.011 4.9 0.036003 7.419 0 0.30901-1.409-1.675-0.524-1.237-2.062 0.487 0.060005 0.935 0.734 1.237 0-2.002-0.431 0.104-2.757-2.473-2.885-0.472 1.296 0.647 1.002 0.824 1.648-1.825-0.588-1.078 1.395-2.473 1.237-1.365-0.83299-3.294-1.103-4.947-1.648 0.311 2.096-0.88599 2.686-2.061 3.297 1.841-0.041 3.357 0.488 2.473 2.061 4.482-0.574 10.052 0.426 13.602 2.061zm181.36-1.649c2.706-1.077 0.35098-5.173-1.235-5.77 0.76001 1.574-0.41797 5.09 1.235 5.77zm-100.57-4.121v1.649c2.491 0.018005 4.89-0.056999 4.947-2.473-1.742 0.316-3.085 1.823-4.947 0.824zm116.23 3.297c-1.139-0.785 0.061005-3.908-1.648-4.122-0.25998 1.926 0.41101 5.065 1.648 4.122zm-4.122 0.824c0.87201-0.478 1.503-3.782 0-4.122 0.006989 1.357-1.761 3.524 0 4.122zm-52.346-0.824c1.044-0.331 1.052-1.696 1.649-2.473-1.486 0.244-2.765 0.695-4.123 0 0.202 1.448 0.83299 2.466 2.474 2.473zm-105.52 0c-0.169-0.993 0.753-0.896 0.413-2.061-1.486-0.222-2.448 2.197-0.413 2.061zm68.833 13.19c0.509-3.853 1.217-11.349-0.824-14.014-8.066 2.515-6.514 14.369 0.824 14.014zm-22.669-13.19c-0.257 2.948 2.832 1.048 2.885-0.412-1.431-0.331-1.585 0.614-2.885 0.412zm15.25 3.71c0.028-1.908 3.182-2.847 2.473-4.122-1.101 0.835-3.311 2.717-2.473 4.122zm29.265 2.473c0.53299-2.19-0.752-6.113-3.3-6.594 1.764 1.535 1.917 4.68 3.3 6.594zm131.9-4.121c1.498 0.15 1.53 1.767 2.885 2.06 0.23099-2.567-0.82501-3.846-2.472-4.533-0.47501 0.487-0.46802 1.456-0.41299 2.473zm-225.46 0.824c0.048004-0.947 2.752-1.326 1.648-2.062-0.555 0.439-3.26 0.818-1.648 2.062zm105.93 0h2.062c-0.092987-0.78 0.46501-0.91 0.412-1.649-0.97101 0.403-2.615 0.133-2.474 1.649zm-56.879 0c-0.065002 3.475 5.603 0.136 2.885-1.237-0.70499 0.669-1.501 1.248-2.885 1.237zm108.4 1.236c0.17999-1.552-0.87-1.876-1.648-2.473-0.164 1.539 0.33099 2.419 1.648 2.473zm6.184 0c0.771 0.32999 1.51 0.688 2.473 0.824-0.14499-1.366-1.234-1.788-2.06-2.473-0.13098 0.558-0.58698 0.787-0.41299 1.649zm-5.359 1.237c0.78 0.457 1.947 0.526 2.885 0.824 1.901-3.416-2.846-4.293-2.885-0.824zm-170.23 4.946c-0.30701 1.681 1.328 1.419 0.824 3.297-0.642 0.59599-0.813 1.66-2.473 1.236-0.547 2.326-0.869 2.869 0 4.947-0.459 1.052-1.828 1.194-2.474 2.06-0.291 2.256 1.167 3.399 0.412 4.946-0.487 0.47501-1.457 0.468-2.473 0.412-0.541 1.826-0.533 3.98 0.412 5.358-0.812 0.699-0.945 2.078-2.885 1.648-0.654 1.904-0.28799 3.4 0.412 4.946-0.871 1.19-2.248 1.873-2.884 3.297-0.332 1.431 0.614 1.585 0.412 2.887-1.901 1.945-3.903 3.79-4.946 6.595 5.253-0.11101 13.055-0.993 18.547-0.825-0.685-0.825-1.495-1.526-1.648-2.885 2.715-2.111 1.137-4.891-0.412-7.007 0.811-1.112 2.249-1.599 2.473-3.298-3.696-2.229 1.714-6.792-1.649-9.892 0.203-1.583 2.091-1.482 2.061-3.297 0.46-2.11-1.641-1.657-1.648-3.298 2.209-1.506 1.663-4.499 0.413-6.596 2.039-2.008 1.536-4.285 0.412-7.007 0.68301-1.104 1.402-2.17 1.648-3.709-0.526-0.021996-0.57-0.528-1.236-0.412-0.91 2.39-1.447 5.151-3.298 6.597zm7.007-2.062c-1.321 2.578-2.324 4.138-0.413 6.595-0.279 0.957-1.053 1.42-1.649 2.061 0.062996 1.998 1.18 2.942 1.649 4.535-0.84399 0.94299-1.615 1.956-2.062 3.298 0.314 1.609 1.884 1.962 2.062 3.708-0.555 1.095-2.06 1.239-2.062 2.886 2.681 3.496-1.632 6.816 1.237 10.305-2.159 2.146-1.522 5.84 0 7.831 0.056 0.82599-2.8 1.917-0.825 2.061 5.036-1.034 10.415 0.66101 15.663-0.412 0.807-3.554-2.465-3.031-2.886-5.358 1.881-3.266-2.329-3.876-0.824-7.007-0.896-0.752-2.077-1.22-2.473-2.473 1.135-3.523-0.749-4.538-2.061-6.595 2.879-3.629-4.102-5.864-1.236-9.48-4.01-2.429-0.312-7.48-3.71-10.305 1.042-1.534 1.135-5.404-0.824-6.182-1.565 1.164-0.622 3.623 0.414 4.532zm142.2-0.823c1.158-0.076996 1.756-0.718 1.648-2.062-0.59801-1.464-2.544-1.577-4.533-1.648 0.739 1.458 1.529 2.865 2.885 3.71zm-32.15-1.649c1.003-0.232 2.12-0.354 2.062-1.649h-2.062v1.649zm-131.48 0.412c1.82-0.17 3.186 0.111 4.123 0.824 1.151-1.733 4.831-0.938 6.182-2.473-3.234 1.511-8.883-1.808-10.305 1.649zm76.665 0c0.935 1.343 3.221 0.574 2.886-1.648-1.508 0.004005-2.209 0.814-2.886 1.648zm113.76 9.067c-0.075012 1.162-1.961 0.51601-1.648 2.062-0.28497 2.347 1.737 2.383 1.648 4.533-4.082 2.268 1.516 7.037-1.648 9.48-0.21899 2.003 1.751 1.82 1.648 3.71-3.014 2.373 0.32999 6.204-2.062 9.067 0.10303 1.821 1.374 2.474 1.648 4.122-0.548 0.414-1.534 0.38901-1.648 1.236 6.438-0.367 9.466 0.28799 16.074 0 0.029999-2.365-2.81-1.86-2.885-4.121 0.138-1.461 1.134-1.015 0.41199-2.474-0.62701-1.021-2.561-0.73601-2.474-2.473-0.53101-1.632 1.357-0.842 0.82501-2.474 0.13599-1.784-2.282-1.015-2.062-2.885 2.263-3.556-2.591-5.216-0.82501-9.48-2.064-1.265-3.812-4.04-1.648-6.182-3.077-2.496-1.529-7.081-3.708-10.305-0.15701-1.531 1.669-1.078 1.236-2.886-0.978-0.671-2.384-0.913-3.71-1.237 2.419 4.032-1.567 6.138 0.827 10.307zm-180.12-9.479c-0.135 1.631 3.106 0.667 2.885-0.412-1.338-0.239-1.918 0.281-2.885 0.412zm174.35 2.06c0.039001-1.274-1.244-1.229-2.474-1.236-0.095978 1.387 1.532 2.13 2.474 1.236zm-106.34 0.825h3.298c-0.114-2.162-2.963-1.712-3.298 0zm51.934-0.825c0.327 0.95 1.938-0.214 2.06-0.824h-2.06v0.824zm53.581 5.771c-1.564 0.918-2.654 3.539-1.648 5.771-0.64398 0.86499-2.013 1.008-2.472 2.061-0.38101 1.891 1.031 1.991 0.823 3.708-0.28 1.094-2.286 0.46199-2.06 2.062 0.65399 1.686 0.143 4.762-1.65 6.184 1.51 3.126-1.284 3.755-2.472 5.357-0.267 1.642 1.09 1.656 0.823 3.299-0.229 1.146-1.594 1.153-2.472 1.648v3.71c-1.299 0.461-0.93503 0.035995-2.475 0 0.29898 1.258-0.42102 1.501-0.41 2.472 6.112 0.683 11.045-1.77 16.486-0.412-1.374-3.139 1.406-5.288-0.82498-8.656 0.098999-1.276 1.146-1.6 1.648-2.472-0.006989-1.779-2.053-1.52-2.06-3.298 0.87399-0.774 1.377-1.92 2.06-2.886-0.521-1.4-1.858-1.987-2.06-3.71 2.565-1.487 1.431-5.124 0.41101-7.418 2.705-2.372 0.80798-4.114 0-7.42 2.413-0.869 1.932-5.172-0.41101-5.771-0.24799 2.757-2.417 2.404-1.236 5.771zm-104.28-2.885c1.159 0.953 3.18 0.12801 4.534 0-0.005997 0.81801-1.124 0.52301-0.82399 1.648h2.061c-0.35399-2.906-4.372-4.206-5.771-1.648zm48.224 0.413c0.78 0.09201 0.90901-0.465 1.648-0.41299v-0.825c-0.412 0.001999-0.489-0.33301-0.82501-0.41101-0.17499 0.646-1.294 0.35199-0.823 1.649zm-3.296 2.472c0.979-0.25699 1.918-0.554 2.061-1.648-1.208 0.027985-2.325 0.14899-2.061 1.648zm58.528-1.237c-1.165 0.341-1.068-0.582-2.061-0.412-0.51099 1.775 2.358 2.287 2.061 0.412zm-95.213 1.65c0.061005-1.159-1.009-1.189-2.06-1.236-0.059998 1.159 1.01 1.187 2.06 1.236zm30.913 3.297c0.366-1.008 2.301-0.446 2.062-2.062-0.896 0.232-3.159 1.201-2.062 2.062zm-34.622-0.825c2.32 0.704 4.754 1.291 7.419 1.648-1.697-1.426-5.419-2.953-7.419-1.648zm85.733 2.473c-0.57501-1.898-3.418-1.527-4.535-2.885 0.506 1.807 2.792 3.647 4.535 2.885zm-126.95 1.649c1.99-0.218 4.215-2.366 4.122-3.297-1.254 1.219-3.621 1.326-4.122 3.297zm3.709-1.649c-0.16699 0.795-1.597 0.325-1.236 1.648-0.43401 0.022995-0.32501 0.528 0.41199 0.41299 3.03-0.26 6.673-0.87201 9.893-1.236 1.157-0.133 3.16 0.804 3.71-0.825-4.458-0.10501-9.011 1.877-12.779 0zm68.01-0.412c0.536 0.489 2.616 0.194 2.472-1.236-1.256-0.020996-2.098 0.37401-2.472 1.236zm66.771 0c-0.785-0.177-1.036-0.888-2.062-0.824-0.62598 1.783 1.885 2.224 2.062 0.824zm-25.966 2.886c-0.314-1.216-1.922-3.275-2.885-2.474 0.987 0.799 1.258 2.313 2.885 2.474zm5.77-2.061h3.708c-0.072998-1.761-2.997-0.245-3.708 0zm-34.212 0.823c-3.902 0.157-7.752-1.099-9.892 0.825 10.029 0.27301 18.885-0.62599 28.028-1.236-6.286-0.727-12.398 0.17999-18.136 0.411zm-51.52 0.826c6.794 0.724 0.998-1.921 0 0zm54.819 10.303c-1.427-0.496-2.595-1.252-2.474-3.297-5.242-2.452-10.314-5.073-16.075-7.007-0.036987-0.57199-1.05-0.433-0.823 0.412 8.926 3.294 22.977 8.413 16.898 21.433 4.056-0.73799 2.805-7.618 2.474-11.541zm65.947-9.067c0.93799 0.115 1.55-0.099991 1.648-0.82399-0.55701-0.13101-0.78702-0.58701-1.648-0.412v1.236zm-168.58 0h-1.648c-0.65501 1.917 2.129 1.43 1.648 0zm49.873 5.358c-0.717-1.894-1.714-3.507-2.473-5.358-0.617 0.070007-1.521-0.148-1.649 0.412 1.712 1.312 2.072 3.975 4.122 4.946zm32.562 23.906c8.463-0.478 15.315-5.415 16.898-11.128 2.819-10.17-8.203-14.527-16.073-17.312-0.864 8.893-0.87199 18.637-0.825 28.44zm-11.541-27.616c-0.091003-0.31999-0.34601-0.479-0.824-0.41299-4.738 3.974-11.394 5.879-12.366 12.778-1.194 8.483 6.526 11.675 13.603 14.015-0.283-9.64-0.312-15.066-0.41299-26.38zm-90.678 1.649c0.756 0.612 1.396 1.106 2.061 0-0.321-0.091003-0.479-0.34601-0.413-0.823-0.939-0.11699-1.549 0.098007-1.648 0.823zm149.62 1.236c2.088 1.134 2.51-1.716 0.41301-2.06 0.34 1.165-0.582 1.067-0.41301 2.06zm-72.542 18.549c-0.302-1.746-1.537-3.413-1.649-5.771-0.265-5.536 3.2-10.921 7.007-12.777 0.089996-0.517 0.642-0.842-0.41299-0.82399-6.34 2.52-12.939 14.775-4.945 19.372zm65.948-17.724c1.821-0.23799 3.949-0.172 5.356-0.825-0.82901-0.394-4.513-0.911-5.356 0.825zm-83.672-0.413c-5.624 0.45999-12.807-0.98401-16.486 0.825 8.129 0.778 16.783-0.495 24.73 0-1.536-1.928-5.447-1.052-8.244-0.825zm-49.461 0.826c-0.017998 0.567 0.194 0.90401 0.412 1.236 1.043 0.435 1.827-1.391 0.824-1.648-0.23 0.92999-0.642-0.50101-1.236 0.412zm170.64 1.236c0.05899-1.159-1.01-1.189-2.061-1.236-0.522 1.62 0.97299 1.225 2.061 1.236zm-11.542 2.06c-0.168-0.992 0.75299-0.896 0.41299-2.061-0.52698-0.021988-0.56998-0.528-1.236-0.41299-0.29001 0.97301-0.94601 2.616 0.823 2.474zm9.482 2.885c-0.12799 1.639 0.79098 2.231 2.474 2.062v-2.474c-1.262-0.29901-1.213 0.711-2.474 0.412zm-11.953 2.062c1.078 0.116 1.772-0.15001 1.648-1.236-0.526-0.022995-0.57001-0.528-1.236-0.412-0.13101 0.556-0.58704 0.785-0.41202 1.648zm28.028 4.946c0.41199-1.376-0.57199-1.353-1.648-1.236-0.12598 1.087 0.86002 1.063 1.648 1.236zm-30.502-0.413c-0.125 1.087 0.57101 1.354 1.648 1.238v-1.649c-0.71701-0.031982-1.281 0.091019-1.648 0.41101zm16.075 1.238c0.129-0.55901 0.58701-0.789 0.41199-1.649h-1.648c-0.117 1.077 0.14902 1.773 1.236 1.649zm-171.05-0.825c-0.243 1.819 2.226 1.422 1.648-0.41301-0.778-0.091995-0.909 0.46501-1.648 0.41301zm152.92 4.122v0.823c0.24899 0.02301 0.487 0.062012 0.41 0.41301h0.82498c0.02301-0.252 0.062012-0.48801 0.41302-0.41301v-0.823c-0.25201-0.022995-0.48801-0.061996-0.41302-0.412h-0.82498c-0.02301 0.25101-0.059021 0.487-0.41 0.412zm-44.927 1.648c1.077 0.116 1.772-0.14999 1.648-1.237-1.078-0.11601-1.772 0.15099-1.648 1.237zm61.826-0.412c-0.029999 1.234 1.213 2.091 2.062 1.235 0.067993-1.274-1.452-1.852-2.062-1.235zm-169.82 2.474h1.648c0.325-1.589-1.973-1.589-1.648 0zm181.77 9.066c0.664-0.982 3.631 0.334 3.71-1.236-1.089-1.316-3.411 1.017-4.535-0.412 0.561-1.227 2.848-0.72501 4.535-0.823-0.57898-2.075-3.305 0.059998-4.948-0.41301 0.12399-1.113 1.734-0.739 2.062-1.648-2.995-0.384-3.851 0.063004-5.77-0.41299 1.72-0.80301 2.146-1.709 4.946-2.061-7.591-0.059006-12.479-2.038-18.548 0.412 1.882-0.513 1.131 1.37 0.41101 1.648-1.999-0.55-5.283-1.011-5.77 1.236 0.854 0.24699 2.707-0.50801 2.885 0.41299-1.022-0.061005-2.001-0.076996-2.062 0.825 2.412-0.005997 4.82 0.029999 5.771 0.41-1.553 1.059-5.253-0.031006-6.184 1.65 0.91702 0.82701 4.433-0.894 5.771 0.41101-0.612 2.274-6.604-0.832-6.595 2.062 2.462-0.29201 6.73-0.95401 9.068 0-2.314 1.396-7.536-0.114-9.481 1.648 2.076 0.875 6.466-1.426 9.068 0-0.73801 2.146-6.269-0.498-7.007 1.648 3.269 0.119 11.818-0.36899 14.014 0.82501-0.17099 0.92799-2.261-0.062012-2.061 1.236 2.561 0.39101 5.115-0.425 7.83-0.825 2.281-0.336 5.127 0.297 6.597-1.236-1.982-0.45099-3.925 1.273-5.358 0 1.425-1.321 5.602 0.10501 6.594-1.648-1.537 0.25301-4.504 1.059-5.358-0.41299 1.907-0.681 0.366-0.326 0.41299-2.06 1.485-0.244 2.764-0.69501 4.12 0-0.26102-2.388-4.059 0.821-4.118-1.236zm4.945-6.594c0.77802-0.183 2.484 0.56099 2.062-0.823h-2.062v0.823zm-199.49 1.236c-1.312 0.56801 1.456 0.409 2.06 0.412h3.297c1.338 1.136 5.281-0.33499 6.595 0.825-1.376 1.233-5.783-0.56299-6.595 1.236 0.312 1.379-2.021 0.56799 0.413 2.062-0.484 0.063004-1.17-0.070007-1.237 0.412 0.487 0.2 0.935 0.439 1.237 0.824-0.25 0.711-1.955-0.032013-2.061 0.82399 0.78799 0.173 1.774 0.149 1.648 1.236-2.078-0.052002-1.577 0.806-0.412 1.236-1.283 1.053-5.172-0.5-5.77 1.236 2.478 0.26999 6.039-0.54201 7.831 0.41199-2.041 1.176 0.869 0.966 1.649 1.648-1.278 0.233-3.135-0.112-3.298 1.236 2.243-0.877 5.633-1.137 7.832 0-0.73 0.094009-2.063-0.414-1.648 0.82501 1.516-0.48401 4.721-0.38901 5.358 1.236 1.148-0.689 1.516 0.112 2.473 0 3.683-0.43201 1.408-0.79401-2.06-1.236 2.671-1.812 8.478 0.78799 10.304-2.474-0.665-0.54399-3.632-0.88899-3.71 0.412 0.599 0.227 2.13-0.481 2.062 0.41301-2.389-0.589-4.6 1.152-6.183 0 0.432-0.43201 3.533-0.26201 2.473-0.82501-0.599-0.22499-2.131 0.48201-2.062-0.411 2.13-1.031 5.952-0.369 8.244-1.237-1.793-1.615-5.497 1.394-6.183-0.411 1.237-0.355 1.455-1.714 1.236-2.474 0.132 0.728-2.309 0.73599-1.648-0.41301 1.553 0.15901 3.724-1.194 4.947 0-0.709-0.020996-1.058 0.319-1.237 0.82501 2.826-0.66901 0.193 1.732 2.473 1.236 0.061996-0.627 0.462-2.272 1.237-3.297-1.871-1.183-5.564 1.197-7.419 0 1.032-1.716 5.073-0.423 7.419-0.824-1.127-2.369 1.081-0.987 1.649-2.474-2.449 0.30101-6.232-0.73599-7.42 0.823 1.142 0.977 3.809-1.104 4.534 0.82501-2.42-0.694-5.233 1.412-6.183-0.412 0.709 0.020996 1.057-0.317 1.237-0.823-4.438-0.972-5.818-0.53201-9.068 0.823-0.792-2.578 2.589-0.983 3.298-2.062-0.251-0.711-1.956 0.032013-2.062-0.823 1.764-0.733 4.555 1.015 5.771-0.825-7.037-0.256-12.702-0.097-21.021 0.003998zm25.142 0c-4.863 0.285 0.82 0.811 3.298 0.825 0.006004-0.681 1.143-0.23099 1.236-0.825-1.51 0.056-3.275-0.07399-4.534 0zm171.47 1.237c1.032-0.34 3.549 0.80101 3.297-0.825-1.403-0.028-2.877-0.127-3.297 0.825zm-100.98 17.723c0.030991-6.212-0.018005-12.641-0.41301-17.312-8.123 1.637-8.577 16.299 0.41301 17.312zm9.48 1.238c10.338-1.776 9.372-14.992 0-17.312 0.078995 6.605 0.153 10.798 0 17.312zm-21.021-11.543c0.908 2.253 0.524 5.797 2.885 6.597 1.313-2.695-0.556-8.205 2.885-10.305-0.064011-0.48599 0.070999-1.17-0.412-1.237-1.601 1.835-3.591 3.278-5.358 4.945zm30.913 3.298c0.035004 2.02-2.029 3.353-1.236 5.358 1.104-2.65 3.42-4.313 2.885-7.418-0.526-3.061-4.923-5.433-7.007-5.771 2.231 1.748 5.298 4.371 5.358 7.831zm-115-4.946c1.479 0.343 1.994-0.929 2.885 0 0.53001-1.3-3.416-1.3-2.885 0zm0.411 4.946c2.333-0.121 3.831 0.897 5.358-0.411-0.875-0.673-5.573 0.041992-5.358 0.411zm173.94 0.412c3.649-0.505 5.096 1.466 7.006-0.412-1.498-0.273-6.23-1.293-7.006 0.412zm16.898 1.649c0.797-1.263 4.735 0.614 4.946-1.235-0.66901-0.34801-6.186-0.283-4.946 1.235zm-186.3 0.825c2.205 0.007004 4.562 0.16499 5.77-0.825-2.249-0.052002-4.395 0.001999-5.77 0.825zm83.259 18.548c-0.57901-2.651 1.293-5.013 0.41299-6.595-1.117 1.384-2.843 5.297-0.41299 6.595zm27.204 1.236c1.844 0.059006 1.185-2.387 2.062-3.298-0.911-0.327-0.537-1.937-1.648-2.061 0.203 1.622 0.101 2.798-0.414 5.359z"></path><path d="m112.16 48.883c-1.316 0.059002-1.224 1.524-2.474 1.649-0.673-1.411 0.048996-1.239 0.825-2.062-0.876-0.635-1.536-1.487-2.474-2.06-1.51-0.756 4.765 0.11 4.123 2.473z"></path><path d="m114.64 68.255c2.077-1.506 4.575-1.87 5.77-4.122 0.93401-1.762-0.55-4.804 2.061-5.358 0.433 2.04 1.899 3.046 2.061 5.358 0.95-1.936 2.838-2.933 3.71-4.946-0.944 4.966-7.083 8.305-13.602 9.068zm8.243-5.771c-0.736 0.638-0.273 2.474-1.236 2.886 1.714 0.654 2.884-2.832 1.236-2.886z"></path><path d="m45.391 122.66c2.537 0.004997 0.362 6.782-1.236 7.832-0.41-2.882-0.339-5.154-0.413-7.832-1.721-0.956-3.541-6.718 0-7.007-0.365 1.14-1.908 4.094 0.824 3.71-1.57 1.998 0.042999 4.596 1.237 6.183 0.759-0.753 0.218-2.311-0.412-2.886z"></path><path d="m193.36 161.82c0.46199-3.385-0.18201-4.77 0.41299-9.066-1.282 0.091003-0.69699 2.051-0.82399 3.297-0.80301-1.913-0.52101-6.284 0-8.244 0.92099 0.17799 0.16699 2.032 0.41199 2.886 2.592-8.354 1.613-22.486 0.824-30.088 1.536-3.494 0.666-7.111 0.824-10.717 0.065002-1.463 0.894-3.084 0.825-4.534-0.035995-0.769-0.839-1.628-0.825-2.473 0.095993-5.689 3.365-10.833 1.237-16.074 0.636-1.701 1.487-3.184 1.236-5.771 1.382 9.411-1.584 18.828-1.649 29.677-0.15799 26.744-0.724 54.705-1.236 84.496-1.564-0.22101-0.016006-1.538-0.824-2.885-0.651 0.722-0.552 2.195-0.82399 3.298-1.483-12.505-0.055008-22.41-0.41301-37.097 1.889 0.395-0.39099 2.397 0.824 3.295z"></path></g></svg> 